<?xml version="1.0" encoding="utf-8"?>
<!-- Generator: Adobe Illustrator 21.0.1, SVG Export Plug-In . SVG Version: 6.00 Build 0)  -->
<svg version="1.1" id="Layer_3" xmlns="http://www.w3.org/2000/svg" xmlns:xlink="http://www.w3.org/1999/xlink" x="0px" y="0px"
	 viewBox="0 0 45 45" style="enable-background:new 0 0 45 45;" xml:space="preserve">
<style type="text/css">
	.st0{fill:url(#SVGID_1_);}
	.st1{fill:url(#SVGID_2_);}
	.st2{fill:url(#SVGID_3_);}
	.st3{fill:url(#SVGID_4_);}
</style>
<g>
	<linearGradient id="SVGID_1_" gradientUnits="userSpaceOnUse" x1="0" y1="21.6484" x2="23.229" y2="21.6484">
		<stop  offset="0" style="stop-color:#919191"/>
		<stop  offset="0.3517" style="stop-color:#0F0F0F"/>
		<stop  offset="1" style="stop-color:#000000"/>
	</linearGradient>
	<path class="st0" d="M17.9,32.6c-1.4,0.2-3.2,0.4-5.5-0.3c-1.2-0.4-3.8-1.2-5.7-3.9c-2.3-3.3-2-7-1.8-8.1c0.1-0.9,0.7-4.5,3.5-7.1
		c2.4-2.2,5.1-2.4,6.2-2.5c3.5-0.2,6,1.4,7,2.1l0.4,0.1l0-0.6V8.2c-0.1-0.1-0.1-0.1-0.2-0.2c-2.7-1.7-7.2-1.3-8.9-1.1
		c-2.6,0.3-4.2,0.9-4.6,1.1C7.2,8.5,5,9.5,3.1,12c-1.8,2.3-2.4,4.7-2.7,5.7c-0.2,1-0.8,3.5-0.3,6.7c0.2,1.3,0.8,4.5,3.1,7.4
		c2.1,2.6,4.5,3.5,5.5,3.9c2.3,0.9,4.2,0.9,6.2,0.9c1.7,0,4,0,5.5-0.7l2.8-5.1c-0.1,0.2-0.3,0.3-0.4,0.4
		C21.6,32.1,19.2,32.4,17.9,32.6z"/>
	<linearGradient id="SVGID_2_" gradientUnits="userSpaceOnUse" x1="25.4062" y1="33.6517" x2="30.0434" y2="33.6517">
		<stop  offset="0" style="stop-color:#919191"/>
		<stop  offset="0.3517" style="stop-color:#0F0F0F"/>
		<stop  offset="1" style="stop-color:#000000"/>
	</linearGradient>
	<ellipse class="st1" cx="27.7" cy="33.7" rx="2.3" ry="2.6"/>
	<linearGradient id="SVGID_3_" gradientUnits="userSpaceOnUse" x1="25.4062" y1="18.4967" x2="30.0434" y2="18.4967">
		<stop  offset="0" style="stop-color:#919191"/>
		<stop  offset="0.3517" style="stop-color:#0F0F0F"/>
		<stop  offset="1" style="stop-color:#000000"/>
	</linearGradient>
	<ellipse class="st2" cx="27.7" cy="18.5" rx="2.3" ry="2.6"/>
	<linearGradient id="SVGID_4_" gradientUnits="userSpaceOnUse" x1="32.0803" y1="21.6193" x2="45" y2="21.6193">
		<stop  offset="0" style="stop-color:#919191"/>
		<stop  offset="0.3517" style="stop-color:#0F0F0F"/>
		<stop  offset="1" style="stop-color:#000000"/>
	</linearGradient>
	<polygon class="st3" points="41.2,7.5 45,7.5 36.4,35.8 32.1,35.8 	"/>
</g>
<g id="Layer_5">
</g>
</svg>
