<?xml version="1.0" encoding="utf-8"?>
<!-- Generator: Adobe Illustrator 21.0.1, SVG Export Plug-In . SVG Version: 6.00 Build 0)  -->
<svg version="1.1" xmlns="http://www.w3.org/2000/svg" xmlns:xlink="http://www.w3.org/1999/xlink" x="0px" y="0px"
	 viewBox="0 0 45 45" style="enable-background:new 0 0 45 45;" xml:space="preserve">
<style type="text/css">
	.st0{opacity:0.3;fill:url(#SVGID_1_);}
	.st1{opacity:0.3;fill:url(#SVGID_2_);}
	.st2{fill:url(#SVGID_3_);}
	.st3{fill:url(#SVGID_4_);}
	.st4{fill:url(#SVGID_5_);}
	.st5{fill:url(#SVGID_6_);}
</style>
<g id="Layer_4">
	
		<linearGradient id="SVGID_1_" gradientUnits="userSpaceOnUse" x1="26.5" y1="43.7519" x2="26.5" y2="8.5628" gradientTransform="matrix(-1 0 0 -1 49 51)">
		<stop  offset="0" style="stop-color:#FFFFFF;stop-opacity:0.6"/>
		<stop  offset="6.976287e-03" style="stop-color:#F6F6F6;stop-opacity:0.603"/>
		<stop  offset="4.506669e-02" style="stop-color:#C8C8C8;stop-opacity:0.6191"/>
		<stop  offset="8.799452e-02" style="stop-color:#9D9D9D;stop-opacity:0.6372"/>
		<stop  offset="0.1341" style="stop-color:#777777;stop-opacity:0.6568"/>
		<stop  offset="0.1844" style="stop-color:#575757;stop-opacity:0.678"/>
		<stop  offset="0.2399" style="stop-color:#3B3B3B;stop-opacity:0.7015"/>
		<stop  offset="0.3025" style="stop-color:#252525;stop-opacity:0.728"/>
		<stop  offset="0.3757" style="stop-color:#141414;stop-opacity:0.759"/>
		<stop  offset="0.4661" style="stop-color:#090909;stop-opacity:0.7972"/>
		<stop  offset="0.593" style="stop-color:#020202;stop-opacity:0.8509"/>
		<stop  offset="0.9453" style="stop-color:#000000"/>
	</linearGradient>
	<path class="st0" d="M45,39.6c0,3-2.4,5.4-5.4,5.4H5.4c-3,0-5.4-2.4-5.4-5.4V5.4C0,2.4,2.4,0,5.4,0h34.2c3,0,5.4,2.4,5.4,5.4V39.6z
		"/>
	<linearGradient id="SVGID_2_" gradientUnits="userSpaceOnUse" x1="22.5" y1="37.7519" x2="22.5" y2="2.5628">
		<stop  offset="0" style="stop-color:#FFFFFF;stop-opacity:0.6"/>
		<stop  offset="6.976287e-03" style="stop-color:#F6F6F6;stop-opacity:0.603"/>
		<stop  offset="4.506669e-02" style="stop-color:#C8C8C8;stop-opacity:0.6191"/>
		<stop  offset="8.799452e-02" style="stop-color:#9D9D9D;stop-opacity:0.6372"/>
		<stop  offset="0.1341" style="stop-color:#777777;stop-opacity:0.6568"/>
		<stop  offset="0.1844" style="stop-color:#575757;stop-opacity:0.678"/>
		<stop  offset="0.2399" style="stop-color:#3B3B3B;stop-opacity:0.7015"/>
		<stop  offset="0.3025" style="stop-color:#252525;stop-opacity:0.728"/>
		<stop  offset="0.3757" style="stop-color:#141414;stop-opacity:0.759"/>
		<stop  offset="0.4661" style="stop-color:#090909;stop-opacity:0.7972"/>
		<stop  offset="0.593" style="stop-color:#020202;stop-opacity:0.8509"/>
		<stop  offset="0.9453" style="stop-color:#000000"/>
	</linearGradient>
	<path class="st1" d="M0,5.4C0,2.4,2.4,0,5.4,0h34.2c3,0,5.4,2.4,5.4,5.4v34.2c0,3-2.4,5.4-5.4,5.4H5.4c-3,0-5.4-2.4-5.4-5.4V5.4z"
		/>
</g>
<g id="Layer_3">
	<g>
		<linearGradient id="SVGID_3_" gradientUnits="userSpaceOnUse" x1="8.2258" y1="21.6484" x2="22.5656" y2="21.6484">
			<stop  offset="0" style="stop-color:#919191"/>
			<stop  offset="0.3517" style="stop-color:#0F0F0F"/>
			<stop  offset="1" style="stop-color:#000000"/>
		</linearGradient>
		<path class="st2" d="M19.3,28.4c-0.9,0.1-2,0.2-3.4-0.2c-0.7-0.2-2.3-0.7-3.5-2.4c-1.4-2-1.2-4.3-1.1-5c0.1-0.6,0.4-2.8,2.2-4.4
			c1.5-1.4,3.1-1.5,3.8-1.5c2.2-0.1,3.7,0.9,4.3,1.3l0.2,0l0-0.4v-2.5c-0.1,0-0.1-0.1-0.1-0.1c-1.7-1.1-4.5-0.8-5.5-0.7
			c-1.6,0.2-2.6,0.6-2.9,0.7c-0.6,0.3-2,0.9-3.1,2.4c-1.1,1.4-1.5,2.9-1.6,3.5c-0.2,0.6-0.5,2.2-0.2,4.1c0.1,0.8,0.5,2.7,1.9,4.5
			c1.3,1.6,2.8,2.2,3.4,2.4c1.4,0.6,2.6,0.6,3.8,0.5c1.1,0,2.5,0,3.4-0.4l1.7-3.2c-0.1,0.1-0.2,0.2-0.3,0.3
			C21.5,28.1,20.1,28.3,19.3,28.4z"/>
		<linearGradient id="SVGID_4_" gradientUnits="userSpaceOnUse" x1="23.9096" y1="29.0583" x2="26.7722" y2="29.0583">
			<stop  offset="0" style="stop-color:#919191"/>
			<stop  offset="0.3517" style="stop-color:#0F0F0F"/>
			<stop  offset="1" style="stop-color:#000000"/>
		</linearGradient>
		<ellipse class="st3" cx="25.3" cy="29.1" rx="1.4" ry="1.6"/>
		<linearGradient id="SVGID_5_" gradientUnits="userSpaceOnUse" x1="23.9096" y1="19.7028" x2="26.7722" y2="19.7028">
			<stop  offset="0" style="stop-color:#919191"/>
			<stop  offset="0.3517" style="stop-color:#0F0F0F"/>
			<stop  offset="1" style="stop-color:#000000"/>
		</linearGradient>
		<ellipse class="st4" cx="25.3" cy="19.7" rx="1.4" ry="1.6"/>
		<linearGradient id="SVGID_6_" gradientUnits="userSpaceOnUse" x1="28.0296" y1="21.6304" x2="36.0052" y2="21.6304">
			<stop  offset="0" style="stop-color:#919191"/>
			<stop  offset="0.3517" style="stop-color:#0F0F0F"/>
			<stop  offset="1" style="stop-color:#000000"/>
		</linearGradient>
		<polygon class="st5" points="33.7,12.9 36,12.9 30.7,30.4 28,30.4 		"/>
	</g>
	<g id="Layer_5">
	</g>
</g>
</svg>
