<?xml version="1.0" encoding="utf-8"?>
<!-- Generator: Adobe Illustrator 21.0.1, SVG Export Plug-In . SVG Version: 6.00 Build 0)  -->
<svg version="1.1" xmlns="http://www.w3.org/2000/svg" xmlns:xlink="http://www.w3.org/1999/xlink" x="0px" y="0px"
	 viewBox="0 0 45 45" style="enable-background:new 0 0 45 45;" xml:space="preserve">
<style type="text/css">
	.st0{fill:url(#SVGID_1_);}
	.st1{fill:url(#SVGID_2_);}
</style>
<g id="Layer_3">
</g>
<g id="Layer_5">
	<linearGradient id="SVGID_1_" gradientUnits="userSpaceOnUse" x1="8.8407" y1="31.0039" x2="36.2153" y2="31.0039">
		<stop  offset="0" style="stop-color:#919191"/>
		<stop  offset="0.3517" style="stop-color:#0F0F0F"/>
		<stop  offset="1" style="stop-color:#000000"/>
	</linearGradient>
	<path class="st0" d="M36.1,39.7l-2.3-21.2c-0.1-0.7-1-0.8-1-0.8H11.6c-0.7,0-0.7,0.9-0.7,0.9s-1.9,20-2,21.1
		c-0.1,0.5,0.1,0.7,0.4,0.8c0,0.3-0.1,2.6,0,3.1c0.1,0.5,0.8,0.6,0.8,0.6s24.2,0,24.9,0s0.6-0.5,0.6-0.5l0.3-3.2
		C36.4,40.4,36.1,39.7,36.1,39.7z"/>
</g>
<g id="Layer_4">
	<linearGradient id="SVGID_2_" gradientUnits="userSpaceOnUse" x1="14.9391" y1="15.7459" x2="38.0726" y2="15.7459">
		<stop  offset="0" style="stop-color:#919191"/>
		<stop  offset="0.3517" style="stop-color:#0F0F0F"/>
		<stop  offset="1" style="stop-color:#000000"/>
	</linearGradient>
	<path class="st1" d="M27.4,0.4L16.5,13.6h6.2c0,0,1,13.7-7.7,17.5c0,0,16.8,0.8,17.2-17.7h5.9L27.4,0.4z"/>
</g>
</svg>
