<?xml version="1.0" encoding="utf-8"?>
<!-- Generator: Adobe Illustrator 21.0.1, SVG Export Plug-In . SVG Version: 6.00 Build 0)  -->
<svg version="1.0" xmlns="http://www.w3.org/2000/svg" xmlns:xlink="http://www.w3.org/1999/xlink" x="0px" y="0px"
	 viewBox="0 0 200 200" style="enable-background:new 0 0 200 200;" xml:space="preserve">
<style type="text/css">
	.st0{opacity:0.3;fill:url(#SVGID_1_);}
	.st1{opacity:0.3;fill:url(#SVGID_2_);}
	.st2{fill:url(#SVGID_3_);}
	.st3{fill:url(#SVGID_4_);}
	.st4{fill:url(#SVGID_5_);}
	.st5{fill:url(#SVGID_6_);}
</style>
<g id="Layer_3">
	
		<linearGradient id="SVGID_1_" gradientUnits="userSpaceOnUse" x1="-57.6464" y1="434.7177" x2="-57.6464" y2="278.3221" gradientTransform="matrix(-1 0 0 -1 42.3509 466.9318)">
		<stop  offset="0" style="stop-color:#FFFFFF;stop-opacity:0.6"/>
		<stop  offset="6.976287e-03" style="stop-color:#F6F6F6;stop-opacity:0.603"/>
		<stop  offset="4.506669e-02" style="stop-color:#C8C8C8;stop-opacity:0.6191"/>
		<stop  offset="8.799452e-02" style="stop-color:#9D9D9D;stop-opacity:0.6372"/>
		<stop  offset="0.1341" style="stop-color:#777777;stop-opacity:0.6568"/>
		<stop  offset="0.1844" style="stop-color:#575757;stop-opacity:0.678"/>
		<stop  offset="0.2399" style="stop-color:#3B3B3B;stop-opacity:0.7015"/>
		<stop  offset="0.3025" style="stop-color:#252525;stop-opacity:0.728"/>
		<stop  offset="0.3757" style="stop-color:#141414;stop-opacity:0.759"/>
		<stop  offset="0.4661" style="stop-color:#090909;stop-opacity:0.7972"/>
		<stop  offset="0.593" style="stop-color:#020202;stop-opacity:0.8509"/>
		<stop  offset="0.9453" style="stop-color:#000000"/>
	</linearGradient>
	<path class="st0" d="M200,176c0,13.3-10.7,24-24,24H24c-13.3,0-24-10.7-24-24V24C0,10.7,10.7,0,24,0h152c13.3,0,24,10.7,24,24V176z
		"/>
	
		<linearGradient id="SVGID_2_" gradientUnits="userSpaceOnUse" x1="-315.824" y1="459.8454" x2="-315.824" y2="303.4497" gradientTransform="matrix(1 0 0 1 415.8212 -292.0594)">
		<stop  offset="0" style="stop-color:#FFFFFF;stop-opacity:0.6"/>
		<stop  offset="6.976287e-03" style="stop-color:#F6F6F6;stop-opacity:0.603"/>
		<stop  offset="4.506669e-02" style="stop-color:#C8C8C8;stop-opacity:0.6191"/>
		<stop  offset="8.799452e-02" style="stop-color:#9D9D9D;stop-opacity:0.6372"/>
		<stop  offset="0.1341" style="stop-color:#777777;stop-opacity:0.6568"/>
		<stop  offset="0.1844" style="stop-color:#575757;stop-opacity:0.678"/>
		<stop  offset="0.2399" style="stop-color:#3B3B3B;stop-opacity:0.7015"/>
		<stop  offset="0.3025" style="stop-color:#252525;stop-opacity:0.728"/>
		<stop  offset="0.3757" style="stop-color:#141414;stop-opacity:0.759"/>
		<stop  offset="0.4661" style="stop-color:#090909;stop-opacity:0.7972"/>
		<stop  offset="0.593" style="stop-color:#020202;stop-opacity:0.8509"/>
		<stop  offset="0.9453" style="stop-color:#000000"/>
	</linearGradient>
	<path class="st1" d="M0,24C0,10.7,10.7,0,24,0h152c13.3,0,24,10.7,24,24v152c0,13.3-10.7,24-24,24H24c-13.3,0-24-10.7-24-24V24z"/>
</g>
<g id="Layer_5">
	<g>
		
			<linearGradient id="SVGID_3_" gradientUnits="userSpaceOnUse" x1="56.7309" y1="73.885" x2="144.2015" y2="73.885" gradientTransform="matrix(1.0735 -2.726723e-03 2.625057e-03 1.0335 -5.4357 -5.4963)">
			<stop  offset="0" style="stop-color:#919191"/>
			<stop  offset="0.3571" style="stop-color:#0F0F0F"/>
			<stop  offset="1" style="stop-color:#000000"/>
		</linearGradient>
		<path class="st2" d="M145.7,57.6c-1.6,0.3-3.9,1.6-3.9,1.6l-5.6,15.4L99.1,41.5l10.2-9.4l15.5,13.3c0,0,3.4,0.5,5.4-1.3
			c2-1.8,0.8-4.5,0.8-4.5l-19.4-17.9c0,0-2.9-1.4-4.4,0c-1.5,1.4-32.7,31.8-32.7,31.8l-3.4,14.5L56.3,83c0,0-1.4,3.5,0,4.8
			c1.4,1.3,3.6,2.8,4.9,1.6c1.3-1.2,18.4-17.5,18.4-17.5l2.6-14.3l20.4,17.9l-3.9,20.2c0,0-0.5,2.4,1,3.8c1.5,1.4,23.1,20,23.1,20
			s3.6,1.5,5.4,0c1.7-1.5,1.1-4.5,1.1-4.5l-21.3-19.7l9.4-24.7l17.2,15c0,0,3,1.7,6.1-0.3c3.1-2.1,8.9-24.6,8.9-24.6
			S147.3,57.3,145.7,57.6z"/>
		
			<linearGradient id="SVGID_4_" gradientUnits="userSpaceOnUse" x1="59.0791" y1="37.4818" x2="86.6704" y2="37.4818" gradientTransform="matrix(1.0735 -2.726723e-03 2.625057e-03 1.0335 -5.4357 -5.4963)">
			<stop  offset="0" style="stop-color:#919191"/>
			<stop  offset="0.3571" style="stop-color:#0F0F0F"/>
			<stop  offset="1" style="stop-color:#000000"/>
		</linearGradient>
		<path class="st3" d="M72.9,46.8c8.2,0,14.8-6.2,14.8-13.8c0-7.6-6.7-13.7-14.8-13.7s-14.8,6.2-14.8,13.8
			C58.1,40.7,64.8,46.8,72.9,46.8z"/>
	</g>
</g>
<g id="Layer_8">
	
		<linearGradient id="SVGID_5_" gradientUnits="userSpaceOnUse" x1="35.3288" y1="156.9283" x2="167.2469" y2="156.9283" gradientTransform="matrix(1.0735 -2.726723e-03 2.625057e-03 1.0335 -5.4357 -5.4963)">
		<stop  offset="0" style="stop-color:#919191"/>
		<stop  offset="0.3571" style="stop-color:#0F0F0F"/>
		<stop  offset="1" style="stop-color:#000000"/>
	</linearGradient>
	<path class="st4" d="M103.7,140.5c-39.1,0.1-70.8,7.3-70.8,16.1c0,8.8,31.7,15.8,70.8,15.7c39.1-0.1,70.8-7.3,70.8-16.1
		C174.5,147.4,142.8,140.4,103.7,140.5z M102.2,165.3c-29.6,0.1-53.5-4.4-53.5-10c0-5.6,23.9-10.2,53.5-10.3
		c29.6-0.1,53.5,4.4,53.5,10C155.7,160.6,131.7,165.2,102.2,165.3z"/>
</g>
<g id="Layer_4">
	
		<linearGradient id="SVGID_6_" gradientUnits="userSpaceOnUse" x1="84.5963" y1="142.0562" x2="119.0386" y2="142.0562" gradientTransform="matrix(1.0735 -2.726723e-03 2.625057e-03 1.0335 -5.4357 -5.4963)">
		<stop  offset="0" style="stop-color:#919191"/>
		<stop  offset="0.3571" style="stop-color:#0F0F0F"/>
		<stop  offset="1" style="stop-color:#000000"/>
	</linearGradient>
	<polygon class="st5" points="104.3,161.7 122.7,136.6 112.5,136.6 112.5,120.2 104.2,120.2 104.1,120.2 95.9,120.3 96,136.6 
		85.7,136.7 104.3,161.7 104.3,161.8 104.3,161.8 104.3,161.8 	"/>
</g>
</svg>
