<?xml version="1.0" encoding="utf-8"?>
<!-- Generator: Adobe Illustrator 21.0.1, SVG Export Plug-In . SVG Version: 6.00 Build 0)  -->
<svg version="1.1" id="Layer_4" xmlns="http://www.w3.org/2000/svg" xmlns:xlink="http://www.w3.org/1999/xlink" x="0px" y="0px"
	 viewBox="0 0 45 45" style="enable-background:new 0 0 45 45;" xml:space="preserve">
<style type="text/css">
	.st0{fill:url(#SVGID_1_);}
	.st1{fill:url(#SVGID_2_);}
	.st2{fill:url(#SVGID_3_);}
</style>
<g>
	<g>
		
			<linearGradient id="SVGID_1_" gradientUnits="userSpaceOnUse" x1="8.0935" y1="27.1167" x2="33.8356" y2="27.1167" gradientTransform="matrix(1.0735 -2.726723e-03 -2.625057e-03 -1.0335 0.5847 43.3965)">
			<stop  offset="0" style="stop-color:#696969"/>
			<stop  offset="0.3571" style="stop-color:#0F0F0F"/>
			<stop  offset="1" style="stop-color:#000000"/>
		</linearGradient>
		<path class="st0" d="M35.7,11.4c-0.5,0.1-1.2,0.5-1.2,0.5l-1.7,4.6L22,6.7l3-2.7l4.6,3.9c0,0,1,0.1,1.6-0.4
			c0.5-0.5,0.3-1.3,0.3-1.3l-5.8-5.2c0,0-0.9-0.4-1.3,0c-0.4,0.4-9.7,9.4-9.7,9.4l-0.9,4.1l-4.3,4.4c0,0-0.4,1,0,1.4
			c0.4,0.4,1,0.8,1.4,0.5c0.4-0.4,5.4-5.1,5.4-5.1l0.8-4.2l6,5.2l-1.2,5.9c0,0-0.1,0.7,0.3,1.2c0.4,0.4,6.8,5.9,6.8,5.9s1,0.4,1.6,0
			c0.5-0.4,0.3-1.3,0.3-1.3l-6.3-5.8l2.7-7.3l5.1,4.4c0,0,0.9,0.5,1.8-0.1c0.9-0.7,2.6-7.2,2.6-7.2S36.1,11.2,35.7,11.4z"/>
		
			<linearGradient id="SVGID_2_" gradientUnits="userSpaceOnUse" x1="8.7845" y1="38.0327" x2="16.9045" y2="38.0327" gradientTransform="matrix(1.0735 -2.726723e-03 -2.625057e-03 -1.0335 0.5847 43.3965)">
			<stop  offset="0" style="stop-color:#696969"/>
			<stop  offset="0.3571" style="stop-color:#0F0F0F"/>
			<stop  offset="1" style="stop-color:#000000"/>
		</linearGradient>
		<path class="st1" d="M14.3,8.1c2.4,0,4.3-1.8,4.3-4.1S16.6,0,14.3,0S10,1.8,10,4.1C10,6.4,11.9,8.1,14.3,8.1z"/>
	</g>
	
		<linearGradient id="SVGID_3_" gradientUnits="userSpaceOnUse" x1="16.2941" y1="7.2537" x2="26.4302" y2="7.2537" gradientTransform="matrix(1.0735 -2.726723e-03 -2.625057e-03 -1.0335 0.5847 43.3965)">
		<stop  offset="0" style="stop-color:#696969"/>
		<stop  offset="0.3571" style="stop-color:#0F0F0F"/>
		<stop  offset="1" style="stop-color:#000000"/>
	</linearGradient>
	<polygon class="st2" points="23.6,42 28.9,34.5 25.9,34.5 25.9,29.7 23.4,29.8 23.4,29.8 21.1,29.8 21.1,34.5 18.1,34.7 23.6,42 
		23.6,42 23.6,42 	"/>
</g>
</svg>
