<?xml version="1.0" encoding="utf-8"?>
<!-- Generator: Adobe Illustrator 21.0.1, SVG Export Plug-In . SVG Version: 6.00 Build 0)  -->
<svg version="1.1" xmlns="http://www.w3.org/2000/svg" xmlns:xlink="http://www.w3.org/1999/xlink" x="0px" y="0px"
	 viewBox="0 0 45 45" style="enable-background:new 0 0 45 45;" xml:space="preserve">
<style type="text/css">
	.st0{fill:url(#SVGID_1_);}
	.st1{fill:url(#SVGID_2_);}
	.st2{fill:url(#SVGID_3_);}
</style>
<g id="Layer_2">
	
		<linearGradient id="SVGID_1_" gradientUnits="userSpaceOnUse" x1="1.0484" y1="2.8915" x2="39.871" y2="2.8915" gradientTransform="matrix(1.0735 -2.726723e-03 -2.625057e-03 -1.0335 0.5847 43.3965)">
		<stop  offset="0" style="stop-color:#696969"/>
		<stop  offset="0.3571" style="stop-color:#0F0F0F"/>
		<stop  offset="1" style="stop-color:#000000"/>
	</linearGradient>
	<path class="st0" d="M22.5,35.7c-11.5,0-20.8,2.1-20.8,4.7c0,2.6,9.3,4.7,20.8,4.6c11.5,0,20.8-2.1,20.8-4.7
		C43.4,37.8,34,35.7,22.5,35.7z M22.1,43c-8.8,0-15.7-1.3-15.7-3s7.1-3,15.7-3c8.8,0,15.7,1.3,15.7,3C37.8,41.6,30.7,43,22.1,43z"/>
</g>
<g id="Layer_1">
	<g>
		<g>
			<linearGradient id="SVGID_2_" gradientUnits="userSpaceOnUse" x1="8.4126" y1="33.2022" x2="36.0282" y2="33.2022">
				<stop  offset="0" style="stop-color:#696969"/>
				<stop  offset="0.3571" style="stop-color:#0F0F0F"/>
				<stop  offset="1" style="stop-color:#000000"/>
			</linearGradient>
			<path class="st1" d="M34.9,33c-0.5,0.1-1.2,0.5-1.2,0.5L32,38.1l-10.9-9.8l3-2.7l4.6,3.9c0,0,1,0.1,1.6-0.4s0.3-1.3,0.3-1.3
				l-5.8-5.2c0,0-0.9-0.4-1.3,0S13.9,32,13.9,32L13,36.1l-4.3,4.4c0,0-0.4,1,0,1.4s1,0.8,1.4,0.5c0.4-0.4,5.4-5.1,5.4-5.1l0.8-4.2
				l6,5.2L21.1,44c0.7,0,1.7,0,2.7,0l2.6-7l5.1,4.4c0,0,0.9,0.5,1.8-0.1c0.9-0.7,2.6-7.2,2.6-7.2S35.3,32.9,34.9,33z"/>
			
				<linearGradient id="SVGID_3_" gradientUnits="userSpaceOnUse" x1="7.9876" y1="17.0737" x2="16.1076" y2="17.0737" gradientTransform="matrix(1.0735 -2.726723e-03 -2.625057e-03 -1.0335 0.5847 43.3965)">
				<stop  offset="0" style="stop-color:#696969"/>
				<stop  offset="0.3571" style="stop-color:#0F0F0F"/>
				<stop  offset="1" style="stop-color:#000000"/>
			</linearGradient>
			<path class="st2" d="M13.5,29.8c2.4,0,4.3-1.8,4.3-4.1s-2-4.1-4.3-4.1s-4.3,1.8-4.3,4.1C9.2,28.1,11.1,29.8,13.5,29.8z"/>
		</g>
	</g>
</g>
</svg>
