<?xml version="1.0" encoding="utf-8"?>
<!-- Generator: Adobe Illustrator 21.0.1, SVG Export Plug-In . SVG Version: 6.00 Build 0)  -->
<svg version="1.0" xmlns="http://www.w3.org/2000/svg" xmlns:xlink="http://www.w3.org/1999/xlink" x="0px" y="0px"
	 viewBox="0 0 45 45" style="enable-background:new 0 0 45 45;" xml:space="preserve">
<style type="text/css">
	.st0{opacity:0.3;fill:url(#SVGID_1_);}
	.st1{opacity:0.3;fill:url(#SVGID_2_);}
	.st2{fill:url(#SVGID_3_);}
	.st3{fill:url(#SVGID_4_);}
	.st4{fill:url(#SVGID_5_);}
	.st5{fill:url(#SVGID_6_);}
</style>
<g id="Layer_3">
</g>
<g id="Layer_5">
</g>
<g id="Layer_8">
</g>
<g id="Layer_4">
	<g>
		
			<linearGradient id="SVGID_1_" gradientUnits="userSpaceOnUse" x1="-135.1464" y1="304.6836" x2="-135.1464" y2="269.4946" gradientTransform="matrix(-1 0 0 -1 -112.6491 311.9318)">
			<stop  offset="0" style="stop-color:#FFFFFF;stop-opacity:0.6"/>
			<stop  offset="6.976287e-03" style="stop-color:#F6F6F6;stop-opacity:0.603"/>
			<stop  offset="4.506669e-02" style="stop-color:#C8C8C8;stop-opacity:0.6191"/>
			<stop  offset="8.799452e-02" style="stop-color:#9D9D9D;stop-opacity:0.6372"/>
			<stop  offset="0.1341" style="stop-color:#777777;stop-opacity:0.6568"/>
			<stop  offset="0.1844" style="stop-color:#575757;stop-opacity:0.678"/>
			<stop  offset="0.2399" style="stop-color:#3B3B3B;stop-opacity:0.7015"/>
			<stop  offset="0.3025" style="stop-color:#252525;stop-opacity:0.728"/>
			<stop  offset="0.3757" style="stop-color:#141414;stop-opacity:0.759"/>
			<stop  offset="0.4661" style="stop-color:#090909;stop-opacity:0.7972"/>
			<stop  offset="0.593" style="stop-color:#020202;stop-opacity:0.8509"/>
			<stop  offset="0.9453" style="stop-color:#000000"/>
		</linearGradient>
		<path class="st0" d="M45,39.6c0,3-2.4,5.4-5.4,5.4H5.4c-3,0-5.4-2.4-5.4-5.4V5.4C0,2.4,2.4,0,5.4,0h34.2c3,0,5.4,2.4,5.4,5.4V39.6
			z"/>
		
			<linearGradient id="SVGID_2_" gradientUnits="userSpaceOnUse" x1="-393.324" y1="329.8112" x2="-393.324" y2="294.6222" gradientTransform="matrix(1 0 0 1 415.8212 -292.0594)">
			<stop  offset="0" style="stop-color:#FFFFFF;stop-opacity:0.6"/>
			<stop  offset="6.976287e-03" style="stop-color:#F6F6F6;stop-opacity:0.603"/>
			<stop  offset="4.506669e-02" style="stop-color:#C8C8C8;stop-opacity:0.6191"/>
			<stop  offset="8.799452e-02" style="stop-color:#9D9D9D;stop-opacity:0.6372"/>
			<stop  offset="0.1341" style="stop-color:#777777;stop-opacity:0.6568"/>
			<stop  offset="0.1844" style="stop-color:#575757;stop-opacity:0.678"/>
			<stop  offset="0.2399" style="stop-color:#3B3B3B;stop-opacity:0.7015"/>
			<stop  offset="0.3025" style="stop-color:#252525;stop-opacity:0.728"/>
			<stop  offset="0.3757" style="stop-color:#141414;stop-opacity:0.759"/>
			<stop  offset="0.4661" style="stop-color:#090909;stop-opacity:0.7972"/>
			<stop  offset="0.593" style="stop-color:#020202;stop-opacity:0.8509"/>
			<stop  offset="0.9453" style="stop-color:#000000"/>
		</linearGradient>
		<path class="st1" d="M0,5.4C0,2.4,2.4,0,5.4,0h34.2c3,0,5.4,2.4,5.4,5.4v34.2c0,3-2.4,5.4-5.4,5.4H5.4c-3,0-5.4-2.4-5.4-5.4V5.4z"
			/>
		<g>
			
				<linearGradient id="SVGID_3_" gradientUnits="userSpaceOnUse" x1="11.1842" y1="18.4335" x2="30.8651" y2="18.4335" gradientTransform="matrix(1.0735 -2.726723e-03 2.625057e-03 1.0335 0.4666 -3.111)">
				<stop  offset="0" style="stop-color:#696969"/>
				<stop  offset="0.3571" style="stop-color:#0F0F0F"/>
				<stop  offset="1" style="stop-color:#000000"/>
			</linearGradient>
			<path class="st2" d="M32.8,13c-0.4,0.1-0.9,0.4-0.9,0.4l-1.3,3.5l-8.3-7.5l2.3-2.1l3.5,3c0,0,0.8,0.1,1.2-0.3
				c0.4-0.4,0.2-1,0.2-1l-4.4-4c0,0-0.7-0.3-1,0c-0.3,0.3-7.4,7.2-7.4,7.2L16,15.3l-3.3,3.4c0,0-0.3,0.8,0,1.1
				c0.3,0.3,0.8,0.6,1.1,0.4c0.3-0.3,4.1-3.9,4.1-3.9l0.6-3.2l4.6,4l-0.9,4.5c0,0-0.1,0.5,0.2,0.9c0.3,0.3,5.2,4.5,5.2,4.5
				s0.8,0.3,1.2,0c0.4-0.3,0.2-1,0.2-1l-4.8-4.4l2.1-5.6l3.9,3.4c0,0,0.7,0.4,1.4-0.1c0.7-0.5,2-5.5,2-5.5S33.1,12.9,32.8,13z"/>
			
				<linearGradient id="SVGID_4_" gradientUnits="userSpaceOnUse" x1="11.7125" y1="10.2428" x2="17.9206" y2="10.2428" gradientTransform="matrix(1.0735 -2.726723e-03 2.625057e-03 1.0335 0.4666 -3.111)">
				<stop  offset="0" style="stop-color:#696969"/>
				<stop  offset="0.3571" style="stop-color:#0F0F0F"/>
				<stop  offset="1" style="stop-color:#000000"/>
			</linearGradient>
			<path class="st3" d="M16.4,10.5c1.8,0,3.3-1.4,3.3-3.1c0-1.7-1.5-3.1-3.3-3.1s-3.3,1.4-3.3,3.1C13.1,9.2,14.6,10.5,16.4,10.5z"/>
		</g>
		
			<linearGradient id="SVGID_5_" gradientUnits="userSpaceOnUse" x1="6.3687" y1="37.1183" x2="36.0503" y2="37.1183" gradientTransform="matrix(1.0735 -2.726723e-03 2.625057e-03 1.0335 0.4666 -3.111)">
			<stop  offset="0" style="stop-color:#696969"/>
			<stop  offset="0.3571" style="stop-color:#0F0F0F"/>
			<stop  offset="1" style="stop-color:#000000"/>
		</linearGradient>
		<path class="st4" d="M23.3,31.6c-8.8,0-15.9,1.6-15.9,3.6c0,2,7.1,3.6,15.9,3.5c8.8,0,15.9-1.6,15.9-3.6
			C39.3,33.2,32.1,31.6,23.3,31.6z M23,37.2c-6.7,0-12-1-12-2.3c0-1.3,5.4-2.3,12-2.3c6.7,0,12,1,12,2.3C35,36.1,29.6,37.2,23,37.2z
			"/>
		
			<linearGradient id="SVGID_6_" gradientUnits="userSpaceOnUse" x1="17.4539" y1="33.7721" x2="25.2034" y2="33.7721" gradientTransform="matrix(1.0735 -2.726723e-03 2.625057e-03 1.0335 0.4666 -3.111)">
			<stop  offset="0" style="stop-color:#696969"/>
			<stop  offset="0.3571" style="stop-color:#0F0F0F"/>
			<stop  offset="1" style="stop-color:#000000"/>
		</linearGradient>
		<polygon class="st5" points="23.5,36.4 27.6,30.7 25.3,30.7 25.3,27 23.4,27.1 23.4,27.1 21.6,27.1 21.6,30.7 19.3,30.8 
			23.5,36.4 23.5,36.4 23.5,36.4 23.5,36.4 		"/>
	</g>
</g>
</svg>
