<?xml version="1.0" encoding="utf-8"?>
<!-- Generator: Adobe Illustrator 21.0.1, SVG Export Plug-In . SVG Version: 6.00 Build 0)  -->
<svg version="1.0" id="Layer_1" xmlns="http://www.w3.org/2000/svg" xmlns:xlink="http://www.w3.org/1999/xlink" x="0px" y="0px"
	 viewBox="0 0 45 45" style="enable-background:new 0 0 45 45;" xml:space="preserve">
<style type="text/css">
	.st0{opacity:0.3;fill:url(#SVGID_1_);}
	.st1{opacity:0.3;fill:url(#SVGID_2_);}
	.st2{fill:url(#SVGID_3_);}
	.st3{fill:url(#SVGID_4_);}
</style>
<linearGradient id="SVGID_1_" gradientUnits="userSpaceOnUse" x1="-47.5739" y1="207.594" x2="-47.5739" y2="172.405" gradientTransform="matrix(1 0 0 1 70.0739 -169.8421)">
	<stop  offset="0" style="stop-color:#FFFFFF;stop-opacity:0.6"/>
	<stop  offset="6.976287e-03" style="stop-color:#F6F6F6;stop-opacity:0.603"/>
	<stop  offset="4.506669e-02" style="stop-color:#C8C8C8;stop-opacity:0.6191"/>
	<stop  offset="8.799452e-02" style="stop-color:#9D9D9D;stop-opacity:0.6372"/>
	<stop  offset="0.1341" style="stop-color:#777777;stop-opacity:0.6568"/>
	<stop  offset="0.1844" style="stop-color:#575757;stop-opacity:0.678"/>
	<stop  offset="0.2399" style="stop-color:#3B3B3B;stop-opacity:0.7015"/>
	<stop  offset="0.3025" style="stop-color:#252525;stop-opacity:0.728"/>
	<stop  offset="0.3757" style="stop-color:#141414;stop-opacity:0.759"/>
	<stop  offset="0.4661" style="stop-color:#090909;stop-opacity:0.7972"/>
	<stop  offset="0.593" style="stop-color:#020202;stop-opacity:0.8509"/>
	<stop  offset="0.9453" style="stop-color:#000000"/>
</linearGradient>
<path class="st0" d="M0,5.4C0,2.4,2.4,0,5.4,0h34.2c3,0,5.4,2.4,5.4,5.4v34.2c0,3-2.4,5.4-5.4,5.4H5.4c-3,0-5.4-2.4-5.4-5.4V5.4z"/>
<linearGradient id="SVGID_2_" gradientUnits="userSpaceOnUse" x1="-47.5739" y1="207.594" x2="-47.5739" y2="172.405" gradientTransform="matrix(-1 0 0 -1 -25.0739 214.8421)">
	<stop  offset="0" style="stop-color:#FFFFFF;stop-opacity:0.6"/>
	<stop  offset="6.976287e-03" style="stop-color:#F6F6F6;stop-opacity:0.603"/>
	<stop  offset="4.506669e-02" style="stop-color:#C8C8C8;stop-opacity:0.6191"/>
	<stop  offset="8.799452e-02" style="stop-color:#9D9D9D;stop-opacity:0.6372"/>
	<stop  offset="0.1341" style="stop-color:#777777;stop-opacity:0.6568"/>
	<stop  offset="0.1844" style="stop-color:#575757;stop-opacity:0.678"/>
	<stop  offset="0.2399" style="stop-color:#3B3B3B;stop-opacity:0.7015"/>
	<stop  offset="0.3025" style="stop-color:#252525;stop-opacity:0.728"/>
	<stop  offset="0.3757" style="stop-color:#141414;stop-opacity:0.759"/>
	<stop  offset="0.4661" style="stop-color:#090909;stop-opacity:0.7972"/>
	<stop  offset="0.593" style="stop-color:#020202;stop-opacity:0.8509"/>
	<stop  offset="0.9453" style="stop-color:#000000"/>
</linearGradient>
<path class="st1" d="M45,39.6c0,3-2.4,5.4-5.4,5.4H5.4c-3,0-5.4-2.4-5.4-5.4V5.4C0,2.4,2.4,0,5.4,0h34.2c3,0,5.4,2.4,5.4,5.4V39.6z"
	/>
<g>
	<linearGradient id="SVGID_3_" gradientUnits="userSpaceOnUse" x1="22.3062" y1="12.68" x2="42.67" y2="12.68">
		<stop  offset="0" style="stop-color:#919191"/>
		<stop  offset="0.3571" style="stop-color:#121212"/>
		<stop  offset="1" style="stop-color:#000000"/>
	</linearGradient>
	<path class="st2" d="M39.7,2.5c1.7,0,3,1.4,3,3v8.9c0,1.7-1.1,3-2.5,3s-2.5-1.4-2.5-3V14c0-1.7-1-2-2.1-0.9l-8.8,8.8
		c-1.2,1.2-2.9,1.3-3.9,0.3s-0.8-2.7,0.3-3.9L32,9.6c1.2-1.2,0.8-2.1-0.9-2.1h-0.4c-1.7,0-3-1.1-3-2.5s1.3-2.5,3-2.5H39.7z"/>
</g>
<g>
	<linearGradient id="SVGID_4_" gradientUnits="userSpaceOnUse" x1="2.249" y1="32.8206" x2="22.6128" y2="32.8206">
		<stop  offset="0" style="stop-color:#919191"/>
		<stop  offset="0.3571" style="stop-color:#121212"/>
		<stop  offset="1" style="stop-color:#000000"/>
	</linearGradient>
	<path class="st3" d="M5.2,43c-1.7,0-3-1.3-3-3v-8.9c0-1.6,1.1-3,2.5-3s2.5,1.4,2.5,3v0.4c0,1.6,1,2,2.1,0.9l8.8-8.8
		c1.2-1.2,2.9-1.3,3.9-0.3c1,1,0.8,2.7-0.3,3.9l-8.7,8.7c-1.2,1.2-0.8,2.1,0.9,2.1h0.4c1.7,0,3,1.1,3,2.5s-1.3,2.5-3,2.5H5.2z"/>
</g>
</svg>
