<?xml version="1.0" encoding="utf-8"?>
<!-- Generator: Adobe Illustrator 21.0.1, SVG Export Plug-In . SVG Version: 6.00 Build 0)  -->
<svg version="1.0" id="Layer_2" xmlns="http://www.w3.org/2000/svg" xmlns:xlink="http://www.w3.org/1999/xlink" x="0px" y="0px"
	 viewBox="0 0 45 45" style="enable-background:new 0 0 45 45;" xml:space="preserve">
<style type="text/css">
	.st0{fill:url(#SVGID_1_);}
	.st1{fill:url(#SVGID_2_);}
</style>
<g>
	<linearGradient id="SVGID_1_" gradientUnits="userSpaceOnUse" x1="22.3062" y1="12.68" x2="42.67" y2="12.68">
		<stop  offset="0" style="stop-color:#919191"/>
		<stop  offset="0.3571" style="stop-color:#121212"/>
		<stop  offset="1" style="stop-color:#000000"/>
	</linearGradient>
	<path class="st0" d="M39.7,2.5c1.7,0,3,1.4,3,3v8.9c0,1.7-1.1,3-2.5,3s-2.5-1.4-2.5-3V14c0-1.7-1-2-2.1-0.9l-8.8,8.8
		c-1.2,1.2-2.9,1.3-3.9,0.3s-0.8-2.7,0.3-3.9L32,9.6c1.2-1.2,0.8-2.1-0.9-2.1h-0.4c-1.7,0-3-1.1-3-2.5s1.3-2.5,3-2.5H39.7z"/>
</g>
<g>
	<linearGradient id="SVGID_2_" gradientUnits="userSpaceOnUse" x1="2.249" y1="32.8206" x2="22.6128" y2="32.8206">
		<stop  offset="0" style="stop-color:#919191"/>
		<stop  offset="0.3571" style="stop-color:#121212"/>
		<stop  offset="1" style="stop-color:#000000"/>
	</linearGradient>
	<path class="st1" d="M5.2,43c-1.7,0-3-1.3-3-3v-8.9c0-1.6,1.1-3,2.5-3s2.5,1.4,2.5,3v0.4c0,1.6,1,2,2.1,0.9l8.8-8.8
		c1.2-1.2,2.9-1.3,3.9-0.3c1,1,0.8,2.7-0.3,3.9l-8.7,8.7c-1.2,1.2-0.8,2.1,0.9,2.1h0.4c1.7,0,3,1.1,3,2.5s-1.3,2.5-3,2.5H5.2z"/>
</g>
</svg>
