<?xml version="1.0" encoding="utf-8"?>
<!-- Generator: Adobe Illustrator 21.0.1, SVG Export Plug-In . SVG Version: 6.00 Build 0)  -->
<svg version="1.0" xmlns="http://www.w3.org/2000/svg" xmlns:xlink="http://www.w3.org/1999/xlink" x="0px" y="0px"
	 viewBox="0 0 45 45" style="enable-background:new 0 0 45 45;" xml:space="preserve">
<style type="text/css">
	.st0{opacity:0.3;fill:url(#SVGID_1_);}
	.st1{opacity:0.3;fill:url(#SVGID_2_);}
	.st2{fill:url(#SVGID_3_);}
</style>
<g id="Layer_3">
	<linearGradient id="SVGID_1_" gradientUnits="userSpaceOnUse" x1="22.5" y1="37.7519" x2="22.5" y2="2.5628">
		<stop  offset="0" style="stop-color:#FFFFFF;stop-opacity:0.6"/>
		<stop  offset="6.976287e-03" style="stop-color:#F6F6F6;stop-opacity:0.603"/>
		<stop  offset="4.506669e-02" style="stop-color:#C8C8C8;stop-opacity:0.6191"/>
		<stop  offset="8.799452e-02" style="stop-color:#9D9D9D;stop-opacity:0.6372"/>
		<stop  offset="0.1341" style="stop-color:#777777;stop-opacity:0.6568"/>
		<stop  offset="0.1844" style="stop-color:#575757;stop-opacity:0.678"/>
		<stop  offset="0.2399" style="stop-color:#3B3B3B;stop-opacity:0.7015"/>
		<stop  offset="0.3025" style="stop-color:#252525;stop-opacity:0.728"/>
		<stop  offset="0.3757" style="stop-color:#141414;stop-opacity:0.759"/>
		<stop  offset="0.4661" style="stop-color:#090909;stop-opacity:0.7972"/>
		<stop  offset="0.593" style="stop-color:#020202;stop-opacity:0.8509"/>
		<stop  offset="0.9453" style="stop-color:#000000"/>
	</linearGradient>
	<path class="st0" d="M0,5.4C0,2.4,2.4,0,5.4,0h34.2c3,0,5.4,2.4,5.4,5.4v34.2c0,3-2.4,5.4-5.4,5.4H5.4c-3,0-5.4-2.4-5.4-5.4V5.4z"
		/>
	
		<linearGradient id="SVGID_2_" gradientUnits="userSpaceOnUse" x1="12.5" y1="43.7519" x2="12.5" y2="8.5628" gradientTransform="matrix(-1 0 0 -1 35 51)">
		<stop  offset="0" style="stop-color:#FFFFFF;stop-opacity:0.6"/>
		<stop  offset="6.976287e-03" style="stop-color:#F6F6F6;stop-opacity:0.603"/>
		<stop  offset="4.506669e-02" style="stop-color:#C8C8C8;stop-opacity:0.6191"/>
		<stop  offset="8.799452e-02" style="stop-color:#9D9D9D;stop-opacity:0.6372"/>
		<stop  offset="0.1341" style="stop-color:#777777;stop-opacity:0.6568"/>
		<stop  offset="0.1844" style="stop-color:#575757;stop-opacity:0.678"/>
		<stop  offset="0.2399" style="stop-color:#3B3B3B;stop-opacity:0.7015"/>
		<stop  offset="0.3025" style="stop-color:#252525;stop-opacity:0.728"/>
		<stop  offset="0.3757" style="stop-color:#141414;stop-opacity:0.759"/>
		<stop  offset="0.4661" style="stop-color:#090909;stop-opacity:0.7972"/>
		<stop  offset="0.593" style="stop-color:#020202;stop-opacity:0.8509"/>
		<stop  offset="0.9453" style="stop-color:#000000"/>
	</linearGradient>
	<path class="st1" d="M45,39.6c0,3-2.4,5.4-5.4,5.4H5.4c-3,0-5.4-2.4-5.4-5.4V5.4C0,2.4,2.4,0,5.4,0h34.2c3,0,5.4,2.4,5.4,5.4V39.6z
		"/>
</g>
<g id="Layer_2">
	<linearGradient id="SVGID_3_" gradientUnits="userSpaceOnUse" x1="5.952" y1="22.4936" x2="40" y2="22.4936">
		<stop  offset="0" style="stop-color:#878787"/>
		<stop  offset="0.3517" style="stop-color:#0F0F0F"/>
		<stop  offset="1" style="stop-color:#000000"/>
	</linearGradient>
	<path class="st2" d="M39.1,15.8c-0.9,0-2.3,0-2.3,0V14c0,0-0.4-1.6-1.8-1.6c-1.4,0-15.6,0-15.6,0s-0.5-0.6-0.6-0.8
		c-0.1-0.3-0.9-1.7-2.5-1.8c-1.5,0-4.5,0-4.5,0s-0.6,0-1.1,0.7c-0.4,0.7-1.2,1.8-1.2,1.8H7.7c0,0-1.4,0.4-1.6,1.7s0,19.4,0,19.4
		s0.1,1.6,1.6,1.9h27.8c0,0,1.3-0.1,1.5-1.2s3-17.1,3-17.1S39.9,15.8,39.1,15.8z M34.9,15.9c0,0-22.7,0-23.5,0c-0.8,0-1.3,1-1.3,1
		L7.9,29.8c0,0-0.1-15.2,0-15.4c0.1-0.2,0.3-0.2,0.3-0.2s1.1,0,1.5,0c0.3,0,0.9-0.3,1.1-0.5c0.2-0.3,0.9-0.9,0.9-1.3
		c0-0.4,0.8-0.8,0.8-0.8s4-0.1,4.3,0c0.3,0.1,1.1,1.7,1.1,1.9c0,0.2,1,0.7,1,0.7s15.6,0.1,15.9,0c0.3-0.1,0.3,0.3,0.3,0.3V15.9z"/>
</g>
</svg>
