<?xml version="1.0" encoding="utf-8"?>
<!-- Generator: Adobe Illustrator 21.0.1, SVG Export Plug-In . SVG Version: 6.00 Build 0)  -->
<svg version="1.1" id="Layer_2" xmlns="http://www.w3.org/2000/svg" xmlns:xlink="http://www.w3.org/1999/xlink" x="0px" y="0px"
	 viewBox="0 0 45 45" style="enable-background:new 0 0 45 45;" xml:space="preserve">
<style type="text/css">
	.st0{fill:url(#SVGID_1_);}
</style>
<linearGradient id="SVGID_1_" gradientUnits="userSpaceOnUse" x1="-7.826067e-02" y1="22.5" x2="45" y2="22.5" gradientTransform="matrix(1 0 0 -1 0 45)">
	<stop  offset="0" style="stop-color:#878787"/>
	<stop  offset="0.3517" style="stop-color:#0F0F0F"/>
	<stop  offset="1" style="stop-color:#000000"/>
</linearGradient>
<path class="st0" d="M43.8,13.6c-1.2,0-3,0-3,0v-2.4c0,0-0.5-2.1-2.4-2.1s-20.7,0-20.7,0S17.1,8.3,16.9,8c-0.1-0.4-1.2-2.3-3.3-2.4
	c-2,0-6,0-6,0s-0.8,0-1.5,0.9C5.7,7.5,4.6,8.9,4.6,8.9H2.2c0,0-1.9,0.5-2.1,2.3s0,25.7,0,25.7s0.1,2.1,2.1,2.5H39c0,0,1.7-0.1,2-1.6
	c0.3-1.5,4-22.6,4-22.6S44.9,13.6,43.8,13.6z M38.2,13.7c0,0-30.1,0-31.1,0S5.4,15,5.4,15L2.5,32.1c0,0-0.1-20.1,0-20.4
	c0.1-0.3,0.4-0.3,0.4-0.3s1.5,0,2,0c0.4,0,1.2-0.4,1.5-0.7c0.3-0.4,1.2-1.2,1.2-1.7S8.6,8,8.6,8s5.3-0.1,5.7,0
	c0.4,0.1,1.5,2.3,1.5,2.5c0,0.3,1.3,0.9,1.3,0.9s20.7,0.1,21.1,0c0.4-0.1,0.4,0.4,0.4,0.4v1.9H38.2z"/>
</svg>
