<?xml version="1.0" encoding="utf-8"?>
<!-- Generator: Adobe Illustrator 21.0.1, SVG Export Plug-In . SVG Version: 6.00 Build 0)  -->
<svg version="1.1" id="Layer_1" xmlns="http://www.w3.org/2000/svg" xmlns:xlink="http://www.w3.org/1999/xlink" x="0px" y="0px"
	 viewBox="0 0 45 45" style="enable-background:new 0 0 45 45;" xml:space="preserve">
<style type="text/css">
	.st0{fill:url(#SVGID_1_);}
	.st1{fill:url(#SVGID_2_);}
	.st2{fill:url(#SVGID_3_);}
	.st3{fill:url(#SVGID_4_);}
	.st4{fill:url(#SVGID_5_);}
	.st5{fill:url(#SVGID_6_);}
</style>
<g>
	<linearGradient id="SVGID_1_" gradientUnits="userSpaceOnUse" x1="3.6538" y1="8" x2="10.6538" y2="8">
		<stop  offset="0" style="stop-color:#919191"/>
		<stop  offset="0.35" style="stop-color:#0F0F0F"/>
		<stop  offset="1" style="stop-color:#000000"/>
	</linearGradient>
	<circle class="st0" cx="7.2" cy="8" r="3.5"/>
	<linearGradient id="SVGID_2_" gradientUnits="userSpaceOnUse" x1="3.6538" y1="37" x2="10.6538" y2="37">
		<stop  offset="0" style="stop-color:#919191"/>
		<stop  offset="0.35" style="stop-color:#0F0F0F"/>
		<stop  offset="1" style="stop-color:#000000"/>
	</linearGradient>
	<circle class="st1" cx="7.2" cy="37" r="3.5"/>
	<linearGradient id="SVGID_3_" gradientUnits="userSpaceOnUse" x1="3.6538" y1="22.5" x2="10.6538" y2="22.5">
		<stop  offset="0" style="stop-color:#919191"/>
		<stop  offset="0.35" style="stop-color:#0F0F0F"/>
		<stop  offset="1" style="stop-color:#000000"/>
	</linearGradient>
	<circle class="st2" cx="7.2" cy="22.5" r="3.5"/>
	<linearGradient id="SVGID_4_" gradientUnits="userSpaceOnUse" x1="13.7372" y1="8" x2="41.4117" y2="8">
		<stop  offset="0" style="stop-color:#919191"/>
		<stop  offset="0.35" style="stop-color:#0F0F0F"/>
		<stop  offset="1" style="stop-color:#000000"/>
	</linearGradient>
	<path class="st3" d="M38.8,11H16.3c-1.4,0-2.6-1.2-2.6-2.6V7.6c0-1.4,1.2-2.6,2.6-2.6h22.5c1.4,0,2.6,1.2,2.6,2.6v0.8
		C41.4,9.8,40.2,11,38.8,11z"/>
	<linearGradient id="SVGID_5_" gradientUnits="userSpaceOnUse" x1="13.7372" y1="37" x2="41.4117" y2="37">
		<stop  offset="0" style="stop-color:#919191"/>
		<stop  offset="0.35" style="stop-color:#0F0F0F"/>
		<stop  offset="1" style="stop-color:#000000"/>
	</linearGradient>
	<path class="st4" d="M38.8,40H16.3c-1.4,0-2.6-1.2-2.6-2.6v-0.8c0-1.4,1.2-2.6,2.6-2.6h22.5c1.4,0,2.6,1.2,2.6,2.6v0.8
		C41.4,38.8,40.2,40,38.8,40z"/>
	<linearGradient id="SVGID_6_" gradientUnits="userSpaceOnUse" x1="13.7372" y1="22.5" x2="41.4117" y2="22.5">
		<stop  offset="0" style="stop-color:#919191"/>
		<stop  offset="0.35" style="stop-color:#0F0F0F"/>
		<stop  offset="1" style="stop-color:#000000"/>
	</linearGradient>
	<path class="st5" d="M38.8,25.5H16.3c-1.4,0-2.6-1.2-2.6-2.6v-0.8c0-1.4,1.2-2.6,2.6-2.6h22.5c1.4,0,2.6,1.2,2.6,2.6v0.8
		C41.4,24.3,40.2,25.5,38.8,25.5z"/>
</g>
</svg>
