<?xml version="1.0" encoding="utf-8"?>
<!-- Generator: Adobe Illustrator 21.0.1, SVG Export Plug-In . SVG Version: 6.00 Build 0)  -->
<svg version="1.1" id="Layer_6" xmlns="http://www.w3.org/2000/svg" xmlns:xlink="http://www.w3.org/1999/xlink" x="0px" y="0px"
	 viewBox="0 0 45 45" style="enable-background:new 0 0 45 45;" xml:space="preserve">
<style type="text/css">
	.st0{fill:url(#SVGID_1_);}
	.st1{fill:url(#SVGID_2_);}
	.st2{fill:url(#SVGID_3_);}
	.st3{fill:url(#SVGID_4_);}
	.st4{fill:url(#SVGID_5_);}
	.st5{fill:url(#SVGID_6_);}
	.st6{fill:url(#SVGID_7_);}
	.st7{fill:url(#SVGID_8_);}
</style>
<g>
	<linearGradient id="SVGID_1_" gradientUnits="userSpaceOnUse" x1="13.1367" y1="34.6536" x2="28.1686" y2="34.6536">
		<stop  offset="0" style="stop-color:#919191"/>
		<stop  offset="0.3517" style="stop-color:#0F0F0F"/>
		<stop  offset="1" style="stop-color:#000000"/>
	</linearGradient>
	<path class="st0" d="M13.1,33.2c2.6,2.8,6.3,4.5,10.3,4.5c1.6,0,3.2-0.3,4.7-0.8c-0.1,0-0.2-0.1-0.3-0.1c-0.3-0.7-0.5-1.4-0.5-2.2
		c-1.2,0.4-2.5,0.7-3.9,0.7c-3.3,0-6.2-1.4-8.4-3.5C14.9,32.5,14.2,33.1,13.1,33.2z"/>
	<linearGradient id="SVGID_2_" gradientUnits="userSpaceOnUse" x1="9.3348" y1="19.5107" x2="37.6998" y2="19.5107">
		<stop  offset="0" style="stop-color:#919191"/>
		<stop  offset="0.3517" style="stop-color:#0F0F0F"/>
		<stop  offset="1" style="stop-color:#000000"/>
	</linearGradient>
	<path class="st1" d="M23.5,9.2c-7.4,0-13.5,5.7-14.1,12.9h0.3c0.7,0.2,1.5,0.6,2.1,1.2c0.1-6.4,5.3-11.6,11.7-11.6
		c6.5,0,11.7,5.2,11.7,11.7c0,1.7-0.4,3.3-1,4.8c0.8,0.4,1.5,0.9,2,1.5c0.9-1.9,1.5-4,1.5-6.3C37.7,15.6,31.3,9.2,23.5,9.2z"/>
	<g>
		<linearGradient id="SVGID_3_" gradientUnits="userSpaceOnUse" x1="6.6938" y1="27.94" x2="12.7715" y2="27.94">
			<stop  offset="0" style="stop-color:#919191"/>
			<stop  offset="0.3517" style="stop-color:#0F0F0F"/>
			<stop  offset="1" style="stop-color:#000000"/>
		</linearGradient>
		<path class="st2" d="M9.7,24.9c-1.7,0-3,1.4-3,3c0,1.7,1.4,3,3,3c1.7,0,3-1.4,3-3C12.8,26.3,11.4,24.9,9.7,24.9z M9.7,29.2
			c-0.7,0-1.3-0.6-1.3-1.3s0.6-1.3,1.3-1.3c0.7,0,1.3,0.6,1.3,1.3S10.4,29.2,9.7,29.2z"/>
		<linearGradient id="SVGID_4_" gradientUnits="userSpaceOnUse" x1="0" y1="27.94" x2="19.4653" y2="27.94">
			<stop  offset="0" style="stop-color:#919191"/>
			<stop  offset="0.3517" style="stop-color:#0F0F0F"/>
			<stop  offset="1" style="stop-color:#000000"/>
		</linearGradient>
		<path class="st3" d="M9.7,18.2c-5.4,0-9.7,4.4-9.7,9.7c0,5.4,4.4,9.7,9.7,9.7c5.4,0,9.7-4.4,9.7-9.7C19.5,22.6,15.1,18.2,9.7,18.2
			z M9.7,31.6c-2,0-3.7-1.7-3.7-3.7c0-2,1.7-3.7,3.7-3.7c2,0,3.7,1.7,3.7,3.7C13.4,30,11.8,31.6,9.7,31.6z"/>
	</g>
	<linearGradient id="SVGID_5_" gradientUnits="userSpaceOnUse" x1="16.6656" y1="17.4657" x2="21.658" y2="17.4657">
		<stop  offset="0" style="stop-color:#919191"/>
		<stop  offset="0.3517" style="stop-color:#0F0F0F"/>
		<stop  offset="1" style="stop-color:#000000"/>
	</linearGradient>
	<path class="st4" d="M18.6,15l-2,1.8l3.1,3.1l1.9-1.9L18.6,15z M18.5,17.5l-0.6-0.6l0.4-0.4l0.6,0.6L18.5,17.5z M19.6,18.5
		l-0.6-0.6l0.4-0.4l0.6,0.6L19.6,18.5z"/>
	<linearGradient id="SVGID_6_" gradientUnits="userSpaceOnUse" x1="18.7808" y1="9.992" x2="35.2293" y2="9.992">
		<stop  offset="0" style="stop-color:#919191"/>
		<stop  offset="0.3517" style="stop-color:#0F0F0F"/>
		<stop  offset="1" style="stop-color:#000000"/>
	</linearGradient>
	<path class="st5" d="M18.8,13.8l4.1,4.1l1.3-1.3c0,0,1,0.1,1.5-0.2s9.1-8.4,9.1-8.4s1.3-2.4-0.8-4.5s-4.2-1.1-4.2-1.1l-9.3,8.6
		c0,0-0.6,0.9-0.4,1.2C20.2,12.5,18.8,13.8,18.8,13.8z"/>
	<linearGradient id="SVGID_7_" gradientUnits="userSpaceOnUse" x1="26.2035" y1="26.329" x2="45" y2="26.329">
		<stop  offset="0" style="stop-color:#919191"/>
		<stop  offset="0.3517" style="stop-color:#0F0F0F"/>
		<stop  offset="1" style="stop-color:#000000"/>
	</linearGradient>
	<path class="st6" d="M29.6,19.6h11.9c0,0,0.7,0,1.1,0.9L45,33.1H26.2l2.2-12.3C28.4,20.8,28.6,19.7,29.6,19.6z"/>
	<linearGradient id="SVGID_8_" gradientUnits="userSpaceOnUse" x1="25.9838" y1="36.4149" x2="45" y2="36.4149">
		<stop  offset="0" style="stop-color:#919191"/>
		<stop  offset="0.3517" style="stop-color:#0F0F0F"/>
		<stop  offset="1" style="stop-color:#000000"/>
	</linearGradient>
	<path class="st7" d="M44,33.8H26.9c-0.8,0-0.8,0.6-0.8,0.6s-0.1,3,0,3.8c0.1,0.8,0.8,0.8,0.8,0.8s16.8,0,17.4,0s0.7-0.8,0.7-0.8
		s0-2.2,0-3.3S44,33.8,44,33.8z M42.8,36.3c-0.3,0-3.1,0-3.1,0s-0.3,0.1-0.5-0.4c-0.1-0.4,0.2-0.6,0.2-0.6h3.2c0,0,0.5,0.1,0.5,0.5
		C43.1,35.8,43.1,36.3,42.8,36.3z"/>
</g>
</svg>
