<?xml version="1.0" encoding="utf-8"?>
<!-- Generator: Adobe Illustrator 21.0.1, SVG Export Plug-In . SVG Version: 6.00 Build 0)  -->
<svg version="1.1" id="Layer_1" xmlns="http://www.w3.org/2000/svg" xmlns:xlink="http://www.w3.org/1999/xlink" x="0px" y="0px"
	 viewBox="0 0 45 45" style="enable-background:new 0 0 45 45;" xml:space="preserve">
<style type="text/css">
	.st0{fill:url(#SVGID_1_);}
	.st1{fill:url(#SVGID_2_);}
	.st2{fill:url(#SVGID_3_);}
	.st3{fill:url(#SVGID_4_);}
</style>
<g>
	
		<linearGradient id="SVGID_1_" gradientUnits="userSpaceOnUse" x1="1.0125" y1="28.25" x2="34.46" y2="28.25" gradientTransform="matrix(1 0 0 -1 0 45)">
		<stop  offset="0" style="stop-color:#B8B8B8"/>
		<stop  offset="1" style="stop-color:#3D3D3D"/>
	</linearGradient>
	<path class="st0" d="M33.8,22c0.4,0,0.7-0.5,0.7-1V1c0-0.5-0.5-1-1-1H2C1.5,0,1,0.5,1,1v31.5c0,0.5,0.5,1,1,1h16.6
		c0.5,0,1-0.2,1-0.5c0-0.3,0-1,0-1s-0.1,0-0.1-0.1c0,0-0.5-0.1-1-0.1H4.3c-0.5,0-1-0.5-1-1V3.1c0-0.5,0.5-1,1-1h27.1
		c0.5,0,1,0.5,1,1v18C32.3,21.6,33.4,22,33.8,22z"/>
</g>
<g>
	
		<linearGradient id="SVGID_2_" gradientUnits="userSpaceOnUse" x1="3.1027" y1="27.1875" x2="25.7775" y2="27.1875" gradientTransform="matrix(1 0 0 -1 0 45)">
		<stop  offset="0" style="stop-color:#FFFFFF"/>
		<stop  offset="1" style="stop-color:#575757"/>
	</linearGradient>
	<path class="st1" d="M23.9,23.5c0.4-0.4,0.4-0.5,0-0.4c0,0,0,0-0.4,0.1c0.4-0.1,0.4-0.1,0.4-0.1c0.4-0.1,0.8-0.4,0.9-0.5
		c0.1-0.1,0.1-0.1-0.4,0.3c0,0-3.9,2.4-4.9,6.2c1-3.9,4.9-6.2,4.9-6.2c0.5-0.3,1-0.6,1.2-0.8c0.1-0.1,0.3-0.5-0.2-0.6
		c0,0-2.1-0.8-2.2-0.9c-0.3-0.4-1.4-1.4-1.5-1.4c-0.1,0-0.1-0.4-0.1-0.4c0-0.5,0.3-1.4,0.4-2l0.4-0.8c0.1-0.5,0.3-0.8,0.3-0.4
		c0,0,0,0,0.4-0.3c0.4-0.3,0.6-1.5,0.8-1.6c0.1-0.1,0.1-1,0.3-1.1c0-0.1,0-0.1,0-0.1c0.1-0.4,0.2-0.8,0.1-0.9c0,0,0,0-0.1-0.1
		c-0.1-0.1-0.1-0.1-0.1-0.1c-0.1,0-0.3,0-0.3,0s0-0.5,0-1.1c0,0,0-2.8-0.1-3c0-0.4-0.3-0.8-0.3-0.8C22.9,6.1,22.3,5.4,22,5
		c0,0-0.3-0.2-1.6-0.9c-1.4-0.5-2.5-0.5-2.5-0.5c-0.5,0-0.6,0-0.2,0c0.4,0,0.2,0-0.3,0l-1.2-0.1c-0.5,0.1-0.9,0.2-0.9,0.1
		c0-0.1-0.1,0.1-0.5,0.5c-0.4,0.4-1.1,0.6-1.6,0.9c0,0-0.2-0.2-0.5,0c-0.2,0.2-0.4,0.4-0.1,0.4c0,0,0,0,0.2,0c0.1,0,0.1,0,0.1,0
		c-0.1,0-0.1,0-0.1,0s-0.1,0.4-0.4,0.8c-0.2,0.4-0.4,0.6-0.2,0.6c0.1,0,0.1,0.4,0.1,0.9l-0.1,2.9c0.2,0.5,0.2,1.4,0.1,1.9l-0.5,0.1
		c0.2,0.5,0.6,1.4,0.9,1.7c0,0,0.1,1.3,0.4,1.3s0.5,0.4,0.6,0.9c0,0,0.2,0.6,0.4,1.2c0.2,0.5,0.2,0.8,0.2,0.8
		c-0.1,0.5-0.5,1.2-1,1.6c0,0-0.4,0.4-0.9,0.8c-0.5,0.4-3.6,1.4-5.5,2.1S5,23.6,5,23.6c-0.2,0.4-0.5,1.1-0.6,1.6l-1.2,5.9
		c0,0.5,0.5,1,1.1,1h14.5c0.5,0,1-0.1,1-0.2s0-0.6,0-0.6s0-0.5,0.3-1L23.9,23.5z"/>
</g>
<g>
	
		<linearGradient id="SVGID_3_" gradientUnits="userSpaceOnUse" x1="19.3875" y1="12.25" x2="43.9201" y2="12.25" gradientTransform="matrix(-1 0 0 1 63.275 20.5)">
		<stop  offset="0" style="stop-color:#03D400"/>
		<stop  offset="1" style="stop-color:#1E7F00"/>
	</linearGradient>
	<path class="st2" d="M31.6,45c6.8,0,12.3-5.5,12.3-12.2s-5.5-12.2-12.3-12.2S19.4,26,19.4,32.8S24.9,45,31.6,45z M31.6,22.7
		c5.5,0,10,4.5,10,10s-4.5,10-10,10c-5.5,0-10-4.5-10-10S26.1,22.7,31.6,22.7z"/>
	
		<linearGradient id="SVGID_4_" gradientUnits="userSpaceOnUse" x1="25.059" y1="12.125" x2="38.7146" y2="12.125" gradientTransform="matrix(-1 0 0 1 63.275 20.5)">
		<stop  offset="0" style="stop-color:#03D400"/>
		<stop  offset="1" style="stop-color:#1E7F00"/>
	</linearGradient>
	<path class="st3" d="M24.9,34.2l5.4,5.4c0.2,0.2,0.6,0.4,1,0.4c0.4,0,0.8-0.1,1.1-0.4l5.5-5.5c0.5-0.5,0.5-1.4,0-1.9
		c-0.5-0.5-1.4-0.5-1.9,0l-3.2,3.2v-8.9c0-0.7-0.6-1.4-1.4-1.4S30,25.9,30,26.6v9l-3.2-3.2c-0.5-0.5-1.4-0.5-1.9,0
		C24.4,32.9,24.4,33.8,24.9,34.2z"/>
</g>
</svg>
