<?xml version="1.0" encoding="utf-8"?>
<!-- Generator: Adobe Illustrator 21.0.1, SVG Export Plug-In . SVG Version: 6.00 Build 0)  -->
<svg version="1.1" id="Layer_2" xmlns="http://www.w3.org/2000/svg" xmlns:xlink="http://www.w3.org/1999/xlink" x="0px" y="0px"
	 viewBox="0 0 45 45" style="enable-background:new 0 0 45 45;" xml:space="preserve">
<style type="text/css">
	.st0{fill:url(#SVGID_1_);}
</style>
<linearGradient id="SVGID_1_" gradientUnits="userSpaceOnUse" x1="4.6141" y1="22.55" x2="40.3536" y2="22.55" gradientTransform="matrix(1 0 0 -1 0 45)">
	<stop  offset="0" style="stop-color:#919191"/>
	<stop  offset="0.3517" style="stop-color:#0F0F0F"/>
	<stop  offset="1" style="stop-color:#000000"/>
</linearGradient>
<path class="st0" d="M34.3,18L34.3,18V7.2c0,0-2-7.2-11.3-7.2S10.6,7.2,10.6,7.2V18l-5.9,5.4v16.2l5.9,5.4h23.9l5.9-5.4V23.4
	L34.3,18z M22.5,38.6h-5.6l3.6-6.1l0,0c-1.4-0.7-2.6-2-2.6-3.8c0-2.3,2-4.2,4.6-4.2s4.6,1.9,4.6,4.2c0,1.6-1,3-2.6,3.8l0,0l3.6,6.1
	H22.5z M15.5,18l0.3-9.4c0,0,0.4-3.8,6.7-3.8s6.9,3.8,6.9,3.8V18H15.5z"/>
</svg>
