<?xml version="1.0" encoding="utf-8"?>
<!-- Generator: Adobe Illustrator 21.0.1, SVG Export Plug-In . SVG Version: 6.00 Build 0)  -->
<svg version="1.1" id="Layer_6" xmlns="http://www.w3.org/2000/svg" xmlns:xlink="http://www.w3.org/1999/xlink" x="0px" y="0px"
	 viewBox="0 0 45 45" style="enable-background:new 0 0 45 45;" xml:space="preserve">
<style type="text/css">
	.st0{fill:url(#SVGID_1_);}
	.st1{fill:url(#SVGID_2_);}
</style>
<g>
	
		<linearGradient id="SVGID_1_" gradientUnits="userSpaceOnUse" x1="2.519" y1="22.5" x2="42.9618" y2="22.5" gradientTransform="matrix(1 0 0 -1 0 45)">
		<stop  offset="0" style="stop-color:#919191"/>
		<stop  offset="0.3517" style="stop-color:#0F0F0F"/>
		<stop  offset="1" style="stop-color:#000000"/>
	</linearGradient>
	<path class="st0" d="M43,18.3c0-1.8-2-2.3-2-2.3h-1.6v-5.5L30,0C30,0,9,0,7.8,0S6.2,1.6,6.2,1.6V16c0,0-0.7-0.1-1.9,0.3
		c-1.2,0.4-1.6,1.9-1.6,1.9s-0.4,12.6,0,14.1c0.4,1.5,1.8,1.9,1.8,1.9h1.8c0,0-0.3,7.4,0,8.9c0.3,1.6,1.6,1.9,1.6,1.9
		s28.6,0.1,30.1,0c1.5-0.1,1.5-1.6,1.5-1.6v-9.5c0,0,0.7,0,1.8,0s1.9-1.8,1.9-1.8S43,20,43,18.3z M8.1,1.6h20.7v8.9
		c0,0,0,0.9,0.9,0.9c0.9,0,7.7,0,7.7,0v4.3H8.1V1.6z M27.3,24.9c0,3.4-2.6,6.1-5.8,6.1s-5.8-2.7-5.8-6.1s2.6-6.1,5.8-6.1
		C24.6,18.8,27.3,21.5,27.3,24.9z M7.5,30.9V19.1h2.8v9.6h4.9v2.2H7.5z M37.4,42.5H8.1V34h29.4V42.5z M30.9,26.8
		c0.1,0.3,0.5,1.2,1.6,1.8c1.4,0.7,2.6,0.3,3,0.3h0.1c0-1.4,0-2.7,0-2.7h-2v-2h4.5v6.2c0,0-0.8,0.3-1.1,0.4c0,0-0.1,0-0.3,0
		c-0.5,0.1-1.2,0.3-2.2,0.3c-0.9,0-2.4,0-3.9-0.9c-1.2-0.8-1.8-1.8-1.9-2c-0.8-1.6-0.7-3.1-0.5-3.8c0.1-0.7,0.3-2.3,1.6-3.7
		c1.1-1.1,2.3-1.4,2.8-1.5c0.8-0.3,1.6-0.3,2.3-0.3c0.8,0,2,0.1,3.4,0.5L38,22.1L37,21.7l0,0c-0.7-0.3-1.9-0.7-3.4-0.4
		c-0.5,0.1-1.2,0.3-1.9,0.8c-0.9,0.8-1.2,1.8-1.2,2.3C30.7,24.5,30.4,25.6,30.9,26.8z"/>
	
		<linearGradient id="SVGID_2_" gradientUnits="userSpaceOnUse" x1="18.4478" y1="20.0936" x2="24.3042" y2="20.0936" gradientTransform="matrix(1 0 0 -1 0 45)">
		<stop  offset="0" style="stop-color:#919191"/>
		<stop  offset="0.3517" style="stop-color:#0F0F0F"/>
		<stop  offset="1" style="stop-color:#000000"/>
	</linearGradient>
	<ellipse class="st1" cx="21.3" cy="24.9" rx="3" ry="3.9"/>
</g>
</svg>
