<?xml version="1.0" encoding="utf-8"?>
<!-- Generator: Adobe Illustrator 21.0.1, SVG Export Plug-In . SVG Version: 6.00 Build 0)  -->
<svg version="1.0" xmlns="http://www.w3.org/2000/svg" xmlns:xlink="http://www.w3.org/1999/xlink" x="0px" y="0px"
	 viewBox="0 0 45 45" style="enable-background:new 0 0 45 45;" xml:space="preserve">
<style type="text/css">
	.st0{opacity:0.3;fill:url(#SVGID_1_);}
	.st1{opacity:0.3;fill:url(#SVGID_2_);}
	.st2{fill:url(#SVGID_3_);}
	.st3{fill:url(#SVGID_4_);}
</style>
<g id="Layer_5">
	<linearGradient id="SVGID_1_" gradientUnits="userSpaceOnUse" x1="22.5" y1="37.7519" x2="22.5" y2="2.5628">
		<stop  offset="0" style="stop-color:#FFFFFF;stop-opacity:0.6"/>
		<stop  offset="6.976287e-03" style="stop-color:#F6F6F6;stop-opacity:0.603"/>
		<stop  offset="4.506669e-02" style="stop-color:#C8C8C8;stop-opacity:0.6191"/>
		<stop  offset="8.799452e-02" style="stop-color:#9D9D9D;stop-opacity:0.6372"/>
		<stop  offset="0.1341" style="stop-color:#777777;stop-opacity:0.6568"/>
		<stop  offset="0.1844" style="stop-color:#575757;stop-opacity:0.678"/>
		<stop  offset="0.2399" style="stop-color:#3B3B3B;stop-opacity:0.7015"/>
		<stop  offset="0.3025" style="stop-color:#252525;stop-opacity:0.728"/>
		<stop  offset="0.3757" style="stop-color:#141414;stop-opacity:0.759"/>
		<stop  offset="0.4661" style="stop-color:#090909;stop-opacity:0.7972"/>
		<stop  offset="0.593" style="stop-color:#020202;stop-opacity:0.8509"/>
		<stop  offset="0.9453" style="stop-color:#000000"/>
	</linearGradient>
	<path class="st0" d="M0,5.4C0,2.4,2.4,0,5.4,0h34.2c3,0,5.4,2.4,5.4,5.4v34.2c0,3-2.4,5.4-5.4,5.4H5.4c-3,0-5.4-2.4-5.4-5.4V5.4z"
		/>
	
		<linearGradient id="SVGID_2_" gradientUnits="userSpaceOnUse" x1="26.5" y1="31.7518" x2="26.5" y2="-3.4372" gradientTransform="matrix(-1 0 0 -1 49 39)">
		<stop  offset="0" style="stop-color:#FFFFFF;stop-opacity:0.6"/>
		<stop  offset="6.976287e-03" style="stop-color:#F6F6F6;stop-opacity:0.603"/>
		<stop  offset="4.506669e-02" style="stop-color:#C8C8C8;stop-opacity:0.6191"/>
		<stop  offset="8.799452e-02" style="stop-color:#9D9D9D;stop-opacity:0.6372"/>
		<stop  offset="0.1341" style="stop-color:#777777;stop-opacity:0.6568"/>
		<stop  offset="0.1844" style="stop-color:#575757;stop-opacity:0.678"/>
		<stop  offset="0.2399" style="stop-color:#3B3B3B;stop-opacity:0.7015"/>
		<stop  offset="0.3025" style="stop-color:#252525;stop-opacity:0.728"/>
		<stop  offset="0.3757" style="stop-color:#141414;stop-opacity:0.759"/>
		<stop  offset="0.4661" style="stop-color:#090909;stop-opacity:0.7972"/>
		<stop  offset="0.593" style="stop-color:#020202;stop-opacity:0.8509"/>
		<stop  offset="0.9453" style="stop-color:#000000"/>
	</linearGradient>
	<path class="st1" d="M45,39.6c0,3-2.4,5.4-5.4,5.4H5.4c-3,0-5.4-2.4-5.4-5.4V5.4C0,2.4,2.4,0,5.4,0h34.2c3,0,5.4,2.4,5.4,5.4V39.6z
		"/>
</g>
<g id="Layer_6">
	<g>
		<linearGradient id="SVGID_3_" gradientUnits="userSpaceOnUse" x1="7.7997" y1="22.5" x2="37.6774" y2="22.5">
			<stop  offset="0" style="stop-color:#919191"/>
			<stop  offset="0.3517" style="stop-color:#0F0F0F"/>
			<stop  offset="1" style="stop-color:#000000"/>
		</linearGradient>
		<path class="st2" d="M37.7,19.5c0-1.3-1.5-1.7-1.5-1.7H35v-4.1l-6.9-7.7c0,0-15.5,0-16.4,0c-0.9,0-1.2,1.2-1.2,1.2v10.6
			c0,0-0.5-0.1-1.4,0.2c-0.9,0.3-1.2,1.4-1.2,1.4s-0.3,9.3,0,10.4c0.3,1.1,1.3,1.4,1.3,1.4h1.3c0,0-0.2,5.5,0,6.6
			c0.2,1.2,1.2,1.4,1.2,1.4s21.1,0.1,22.2,0c1.1-0.1,1.1-1.2,1.1-1.2V31c0,0,0.5,0,1.3,0c0.8,0,1.4-1.3,1.4-1.3S37.7,20.8,37.7,19.5
			z M11.9,7.2h15.3v6.6c0,0,0,0.7,0.7,0.7c0.7,0,5.7,0,5.7,0v3.2H11.9V7.2z M26.1,24.4c0,2.5-1.9,4.5-4.3,4.5c-2.4,0-4.3-2-4.3-4.5
			s1.9-4.5,4.3-4.5C24.1,19.9,26.1,21.9,26.1,24.4z M11.5,28.8v-8.7h2.1v7.1h3.6v1.6H11.5z M33.6,37.4H11.9v-6.3h21.7V37.4z
			 M28.8,25.8c0.1,0.2,0.4,0.9,1.2,1.3c1,0.5,1.9,0.2,2.2,0.2h0.1c0-1,0-2,0-2h-1.5v-1.5h3.3v4.6c0,0-0.6,0.2-0.8,0.3
			c0,0-0.1,0-0.2,0c-0.4,0.1-0.9,0.2-1.6,0.2c-0.7,0-1.8,0-2.9-0.7c-0.9-0.6-1.3-1.3-1.4-1.5c-0.6-1.2-0.5-2.3-0.4-2.8
			c0.1-0.5,0.2-1.7,1.2-2.7c0.8-0.8,1.7-1,2.1-1.1c0.6-0.2,1.2-0.2,1.7-0.2c0.6,0,1.5,0.1,2.5,0.4l-0.3,2l-0.7-0.3l0,0
			c-0.5-0.2-1.4-0.5-2.5-0.3c-0.4,0.1-0.9,0.2-1.4,0.6c-0.7,0.6-0.9,1.3-0.9,1.7C28.6,24.1,28.4,24.9,28.8,25.8z"/>
		<linearGradient id="SVGID_4_" gradientUnits="userSpaceOnUse" x1="19.5673" y1="24.4484" x2="23.8938" y2="24.4484">
			<stop  offset="0" style="stop-color:#919191"/>
			<stop  offset="0.3517" style="stop-color:#0F0F0F"/>
			<stop  offset="1" style="stop-color:#000000"/>
		</linearGradient>
		<ellipse class="st3" cx="21.7" cy="24.4" rx="2.2" ry="2.9"/>
	</g>
</g>
</svg>
