<?xml version="1.0" encoding="utf-8"?>
<!-- Generator: Adobe Illustrator 21.0.1, SVG Export Plug-In . SVG Version: 6.00 Build 0)  -->
<svg version="1.1" id="Layer_1" xmlns="http://www.w3.org/2000/svg" xmlns:xlink="http://www.w3.org/1999/xlink" x="0px" y="0px"
	 viewBox="0 0 45 45" style="enable-background:new 0 0 45 45;" xml:space="preserve">
<style type="text/css">
	.st0{fill:url(#SVGID_1_);}
	.st1{font-family:'Arial-BoldMT';}
	.st2{font-size:9px;}
</style>
<linearGradient id="SVGID_1_" gradientUnits="userSpaceOnUse" x1="0" y1="22.3893" x2="45" y2="22.3893">
	<stop  offset="0" style="stop-color:#919191"/>
	<stop  offset="0.3694" style="stop-color:#141414"/>
	<stop  offset="1" style="stop-color:#000000"/>
</linearGradient>
<path class="st0" d="M31.3,0c-7.6,0-13.7,6.5-13.7,14.5c0,3.7,1.3,7.1,3.5,9.6l-0.3,0.3c0,0,0,0,0,0.1l-9,9.5l-4.6-4.9L5.5,31
	l4.6,4.9L9,37l-3.7-3.9l-1.7,1.8l3.7,3.9l-1,1.1L1.7,35L0,36.8l4.6,4.9l0.9,1l2,2.1l6.7-7.1l0.5-0.5L24.3,27c2.1,1.3,4.4,2.1,7,2.1
	c7.6,0,13.7-6.5,13.7-14.5C45,6.5,38.9,0,31.3,0z M31.3,25.7c-5.8,0-10.5-5-10.5-11.2c0-6.2,4.7-11.2,10.5-11.2
	c5.8,0,10.5,5,10.5,11.2C41.8,20.7,37.1,25.7,31.3,25.7z"/>
<text transform="matrix(0.7733 0 0 1 20.5865 17.0531)" class="st1 st2">MBAM</text>
</svg>
