<?xml version="1.0" encoding="utf-8"?>
<!-- Generator: Adobe Illustrator 21.0.1, SVG Export Plug-In . SVG Version: 6.00 Build 0)  -->
<svg version="1.0" id="Layer_3" xmlns="http://www.w3.org/2000/svg" xmlns:xlink="http://www.w3.org/1999/xlink" x="0px" y="0px"
	 viewBox="0 0 45 45" style="enable-background:new 0 0 45 45;" xml:space="preserve">
<style type="text/css">
	.st0{fill:url(#SVGID_1_);}
	.st1{fill:url(#SVGID_2_);}
</style>
<g>
	<linearGradient id="SVGID_1_" gradientUnits="userSpaceOnUse" x1="23" y1="12.0775" x2="43.3638" y2="12.0775">
		<stop  offset="0" style="stop-color:#919191"/>
		<stop  offset="1.466960e-02" style="stop-color:#888888"/>
		<stop  offset="9.192396e-02" style="stop-color:#5D5D5D"/>
		<stop  offset="0.1668" style="stop-color:#3B3B3B"/>
		<stop  offset="0.2376" style="stop-color:#232323"/>
		<stop  offset="0.3028" style="stop-color:#141414"/>
		<stop  offset="0.3571" style="stop-color:#0F0F0F"/>
		<stop  offset="0.4208" style="stop-color:#090909"/>
		<stop  offset="0.5596" style="stop-color:#020202"/>
		<stop  offset="0.9453" style="stop-color:#000000"/>
	</linearGradient>
	<path class="st0" d="M26,22.3c-1.6,0-3-1.4-3-3v-8.9c0-1.6,1.1-3,2.5-3s2.5,1.3,2.5,3v0.4c0,1.6,1,2,2.1,0.9l8.8-8.8
		c1.2-1.2,2.9-1.3,3.9-0.3c1,1,0.8,2.7-0.3,3.9l-8.7,8.7c-1.2,1.2-0.8,2.1,0.9,2.1H35c1.7,0,3,1.1,3,2.5c0,1.4-1.3,2.5-3,2.5H26z"/>
</g>
<g>
	<linearGradient id="SVGID_2_" gradientUnits="userSpaceOnUse" x1="1.9443" y1="33.1797" x2="22.308" y2="33.1797">
		<stop  offset="0" style="stop-color:#919191"/>
		<stop  offset="1.466960e-02" style="stop-color:#888888"/>
		<stop  offset="9.192396e-02" style="stop-color:#5D5D5D"/>
		<stop  offset="0.1668" style="stop-color:#3B3B3B"/>
		<stop  offset="0.2376" style="stop-color:#232323"/>
		<stop  offset="0.3028" style="stop-color:#141414"/>
		<stop  offset="0.3571" style="stop-color:#0F0F0F"/>
		<stop  offset="0.4208" style="stop-color:#090909"/>
		<stop  offset="0.5596" style="stop-color:#020202"/>
		<stop  offset="0.9453" style="stop-color:#000000"/>
	</linearGradient>
	<path class="st1" d="M19.3,23c1.7,0,3,1.4,3,3v8.9c0,1.6-1.1,3-2.5,3c-1.4,0-2.5-1.4-2.5-3v-0.4c0-1.7-1-2-2.1-0.9l-8.8,8.8
		c-1.2,1.2-2.9,1.3-3.9,0.3c-1-1-0.8-2.7,0.3-3.9l8.7-8.7c1.2-1.2,0.8-2.1-0.9-2.1h-0.4c-1.6,0-3-1.1-3-2.5c0-1.4,1.3-2.5,3-2.5
		H19.3z"/>
</g>
</svg>
