<?xml version="1.0" encoding="utf-8"?>
<!-- Generator: Adobe Illustrator 21.0.1, SVG Export Plug-In . SVG Version: 6.00 Build 0)  -->
<svg version="1.1" xmlns="http://www.w3.org/2000/svg" xmlns:xlink="http://www.w3.org/1999/xlink" x="0px" y="0px"
	 viewBox="0 0 45 45" style="enable-background:new 0 0 45 45;" xml:space="preserve">
<style type="text/css">
	.st0{opacity:0.3;fill:url(#SVGID_1_);}
	.st1{opacity:0.3;fill:url(#SVGID_2_);}
	.st2{fill:url(#SVGID_3_);stroke:#000000;stroke-width:0.4;stroke-miterlimit:10;}
	.st3{fill:url(#SVGID_4_);stroke:#000000;stroke-width:0.4;stroke-miterlimit:10;}
	.st4{fill:url(#SVGID_5_);stroke:#000000;stroke-width:0.4;stroke-miterlimit:10;}
	.st5{fill:url(#SVGID_6_);stroke:#000000;stroke-width:0.4;stroke-miterlimit:10;}
	.st6{fill:url(#SVGID_7_);stroke:#000000;stroke-width:0.4;stroke-miterlimit:10;}
	.st7{fill:url(#SVGID_8_);stroke:#000000;stroke-width:0.4;stroke-miterlimit:10;}
	.st8{fill:#7C335E;stroke:#000000;stroke-width:0.4;stroke-miterlimit:10;}
	.st9{fill:url(#SVGID_9_);stroke:#000000;stroke-width:0.4;stroke-miterlimit:10;}
	.st10{fill:url(#SVGID_10_);stroke:#000000;stroke-width:0.4;stroke-miterlimit:10;}
	.st11{fill:url(#SVGID_11_);}
	.st12{stroke:#000000;stroke-width:0.4;stroke-miterlimit:10;}
</style>
<g id="Layer_8">
	
		<linearGradient id="SVGID_1_" gradientUnits="userSpaceOnUse" x1="26.3259" y1="31.7518" x2="26.3259" y2="-3.4372" gradientTransform="matrix(-1 0 0 -1 49 39)">
		<stop  offset="0" style="stop-color:#FFFFFF;stop-opacity:0.6"/>
		<stop  offset="6.976287e-03" style="stop-color:#F6F6F6;stop-opacity:0.603"/>
		<stop  offset="4.506669e-02" style="stop-color:#C8C8C8;stop-opacity:0.6191"/>
		<stop  offset="8.799452e-02" style="stop-color:#9D9D9D;stop-opacity:0.6372"/>
		<stop  offset="0.1341" style="stop-color:#777777;stop-opacity:0.6568"/>
		<stop  offset="0.1844" style="stop-color:#575757;stop-opacity:0.678"/>
		<stop  offset="0.2399" style="stop-color:#3B3B3B;stop-opacity:0.7015"/>
		<stop  offset="0.3025" style="stop-color:#252525;stop-opacity:0.728"/>
		<stop  offset="0.3757" style="stop-color:#141414;stop-opacity:0.759"/>
		<stop  offset="0.4661" style="stop-color:#090909;stop-opacity:0.7972"/>
		<stop  offset="0.593" style="stop-color:#020202;stop-opacity:0.8509"/>
		<stop  offset="0.9453" style="stop-color:#000000"/>
	</linearGradient>
	<path class="st0" d="M45.2,39.6c0,3-2.4,5.4-5.4,5.4H5.6c-3,0-5.4-2.4-5.4-5.4V5.4c0-3,2.4-5.4,5.4-5.4h34.2c3,0,5.4,2.4,5.4,5.4
		V39.6z"/>
	<linearGradient id="SVGID_2_" gradientUnits="userSpaceOnUse" x1="22.5" y1="37.7519" x2="22.5" y2="2.5628">
		<stop  offset="0" style="stop-color:#FFFFFF;stop-opacity:0.6"/>
		<stop  offset="6.976287e-03" style="stop-color:#F6F6F6;stop-opacity:0.603"/>
		<stop  offset="4.506669e-02" style="stop-color:#C8C8C8;stop-opacity:0.6191"/>
		<stop  offset="8.799452e-02" style="stop-color:#9D9D9D;stop-opacity:0.6372"/>
		<stop  offset="0.1341" style="stop-color:#777777;stop-opacity:0.6568"/>
		<stop  offset="0.1844" style="stop-color:#575757;stop-opacity:0.678"/>
		<stop  offset="0.2399" style="stop-color:#3B3B3B;stop-opacity:0.7015"/>
		<stop  offset="0.3025" style="stop-color:#252525;stop-opacity:0.728"/>
		<stop  offset="0.3757" style="stop-color:#141414;stop-opacity:0.759"/>
		<stop  offset="0.4661" style="stop-color:#090909;stop-opacity:0.7972"/>
		<stop  offset="0.593" style="stop-color:#020202;stop-opacity:0.8509"/>
		<stop  offset="0.9453" style="stop-color:#000000"/>
	</linearGradient>
	<path class="st1" d="M0,5.4C0,2.4,2.4,0,5.4,0h34.2c3,0,5.4,2.4,5.4,5.4v34.2c0,3-2.4,5.4-5.4,5.4H5.4c-3,0-5.4-2.4-5.4-5.4V5.4z"
		/>
</g>
<g id="Layer_7">
	<g>
		<linearGradient id="SVGID_3_" gradientUnits="userSpaceOnUse" x1="28.0148" y1="27.7296" x2="31.3932" y2="27.7296">
			<stop  offset="0" style="stop-color:#919191"/>
			<stop  offset="0.3517" style="stop-color:#0F0F0F"/>
			<stop  offset="1" style="stop-color:#000000"/>
		</linearGradient>
		<path class="st2" d="M30.9,26.9c-0.4-0.1-0.6,0.6-1.2,0.6c-0.4,0-0.6-0.3-1.2-0.3c-0.4,0-0.4,0.1-0.4,0.1
			c-0.1,0.2,0.2,0.7,0.6,0.9c0.5,0.4,1.1,0.4,1.3,0.3c0.5,0,1.5-0.3,1.5-0.9C31.4,27.4,31.2,27,30.9,26.9z"/>
		<linearGradient id="SVGID_4_" gradientUnits="userSpaceOnUse" x1="11.5611" y1="20.0436" x2="33.7872" y2="20.0436">
			<stop  offset="0" style="stop-color:#919191"/>
			<stop  offset="0.3517" style="stop-color:#0F0F0F"/>
			<stop  offset="1" style="stop-color:#000000"/>
		</linearGradient>
		<path class="st3" d="M30,16.3c-1.5,0.3-1.7,2.4-2.9,2.6c-0.9,0.2-2.2-0.7-4-4.2c0,0,0,0,0,0c-0.1-0.3-0.3-0.6-0.5-0.9
			c-0.1-0.1-0.1-0.1-0.2-0.2c-0.4-0.4-0.7-0.5-0.9-0.6c-1.3-0.4-3.5-0.8-5.5,0.3c-0.2,0.1-0.9,0.6-1.8,1.5c-2.7,3.2-2.7,7.9-2.7,9.6
			l0,0h1.6l1-2.6l1-1c0,0,0.1,0.1,0.1,0.1C15.1,21.2,15,21.9,15,22c-0.2,1.2,0.5,1.6,0.3,2.6c-0.2,0.9-0.8,1-0.8,1.5
			c0.1,0.9,2.2,1.5,2.4,1.2c0-0.1-0.2-0.2-0.5-0.7c-0.1-0.2-0.7-1.2-0.5-1.6c0.2-0.3,0.7-0.1,0.9-0.4c0.2-0.3-0.4-0.7-0.5-1.5
			c0-0.6,0.2-0.9,0.3-1.2c0.5,0.3,1,0.6,1.7,0.9c-0.1,0.2,0.1,0.7-0.2,1.1c-0.3,0.5-0.8,0.5-0.7,0.7c0,0.1,0.2,0.2,0.5,0.3
			c0.5,0.2,0.9,0.3,1.2,0c0.3-0.2,0.3-0.7,0.4-0.9c0-0.2,0-0.5-0.1-0.9c0.6,0.2,2,0.5,3.1,0.2c0.2,0.2,0.5,0.5,0.8,1.2
			c0.1,0.3,0.2,0.6,0.3,1.2c0.3,1.2,0.2,1.7,0.5,1.8c0.2,0.1,0.6,0.1,0.7-0.1c0.2-0.3-0.3-0.6-0.3-1.3c0-0.1,0-0.6,0.3-0.9
			c0.4-0.5,1-0.3,1.1-0.6c0-0.2-0.3-0.4-0.6-0.5c-0.3-0.1-0.5,0-0.6,0.1c-0.3,0.2-0.4,0.4-0.6,0.4c-0.2,0-0.3-0.2-0.3-0.3
			c-0.2-0.4,0-0.9,0.2-1.3c1.3,0.2,2.1,0.1,2.6,0c0.1,0,0.1,0.1,0.2,0.1c0.5,0.3,1,0.9,1.1,1.5c0.1,0.6-0.3,1-0.1,1.2
			c0.1,0.1,0.4,0.1,0.5,0c0.2-0.1,0.1-0.3,0.3-0.6c0.2-0.4,0.7-0.5,0.9-0.5c0.8-0.2,1.4,0.5,1.6,0.3c0.1-0.2-0.1-0.8-0.6-1
			c-0.5-0.3-0.9,0.3-1.4,0c-0.6-0.3-0.5-1.2-0.8-1.7c0.1,0,0.1,0.1,0.2,0.1c0.1,0,0.3,0.1,0.9,0c0.9-0.1,1.6-0.4,1.6-0.4
			c1-0.4,2.7-1,2.9-2.2C34.1,18.2,31.7,16,30,16.3z"/>
	</g>
	<g id="Layer_5">
		<linearGradient id="SVGID_5_" gradientUnits="userSpaceOnUse" x1="11.5799" y1="31.5238" x2="21.6017" y2="31.5238">
			<stop  offset="0" style="stop-color:#919191"/>
			<stop  offset="0.3517" style="stop-color:#0F0F0F"/>
			<stop  offset="1" style="stop-color:#000000"/>
		</linearGradient>
		<path class="st4" d="M18.3,30.9c-0.1,0.1,0.2,0.4,0.1,0.8C18.3,31.9,18.1,32,18,32c-0.3,0.1-0.8-0.3-0.9-0.6
			c-0.1-0.6,0.5-1.3,1.1-1.5c0.1,0,0.6-0.2,1.1,0.1c0.2,0.1,0.3,0.3,0.7,1.3c0.3,1,0.5,1.6,0.5,2c-0.1,0.8-0.7,1.3-0.8,1.4
			c-0.9,0.7-2,0.4-2.3,0.3c-1.1-0.3-1.7-1.1-2.3-1.9c-0.9-1.2-1.3-2.5-1.6-3.4c-0.4-1.4,0-2.2-0.5-2.7c-0.4-0.3-1.1-0.3-1.3,0
			c-0.1,0.1-0.1,0.3,0.1,1.1c0.2,0.9,0.5,1.5,0.5,1.5c0.5,1.2,0.7,1.9,0.9,2.3c0.4,0.8,0.8,1.4,1,1.6c0.7,1,1.1,1.6,1.8,2
			c0.9,0.5,1.8,0.5,2.4,0.5c0.7,0,1.2,0,1.8-0.4c0.9-0.6,1.3-1.6,1.3-1.8c0.4-1.2,0-2.3-0.3-3.1c-0.3-0.8-0.6-1.5-1.4-1.9
			c-0.8-0.4-1.6-0.1-1.8,0c-0.3,0.1-1,0.4-1.3,1.2c-0.1,0.1-0.4,1.1,0.1,1.9c0.4,0.6,1.1,0.6,1.2,0.6c0.1,0,1,0,1.1-0.6
			C19.1,31.4,18.4,30.8,18.3,30.9z"/>
	</g>
	<g id="Layer_6">
		<linearGradient id="SVGID_6_" gradientUnits="userSpaceOnUse" x1="6.4215" y1="25.7986" x2="15.0403" y2="25.7986">
			<stop  offset="0" style="stop-color:#919191"/>
			<stop  offset="0.3517" style="stop-color:#737373"/>
			<stop  offset="1" style="stop-color:#000000"/>
		</linearGradient>
		<path class="st5" d="M6.5,25.3L8,24.7H9c0,0,1.7-0.2,2.1-0.3c0.5-0.1,2.3,0.2,2.3,0.2l1.6-0.2l-0.9,1.3l0.7,1.2l-8,0.3
			C6.8,27.2,6.2,25.9,6.5,25.3z"/>
		<linearGradient id="SVGID_7_" gradientUnits="userSpaceOnUse" x1="16.0257" y1="26.0303" x2="23.6642" y2="26.0303">
			<stop  offset="0" style="stop-color:#1F1F1F"/>
			<stop  offset="0.3517" style="stop-color:#0F0F0F"/>
			<stop  offset="1" style="stop-color:#000000"/>
		</linearGradient>
		<path class="st6" d="M16.3,24.8l2,0.5l1.2-0.2h3.7l0.5,2.2l-6.8,0.1L16.1,26C16.1,26,15.9,24.7,16.3,24.8z"/>
		<linearGradient id="SVGID_8_" gradientUnits="userSpaceOnUse" x1="24.4387" y1="26.2129" x2="37.8751" y2="26.2129">
			<stop  offset="0" style="stop-color:#1A1A1A"/>
			<stop  offset="0.3517" style="stop-color:#0F0F0F"/>
			<stop  offset="1" style="stop-color:#000000"/>
		</linearGradient>
		<path class="st7" d="M25.8,24.7l1.8,0.1L27.3,26l0.9-0.1l0.5-0.8c0,0,0.8-0.2,1.8,0c1,0.1,0.9-0.3,0.9-0.3h2.7l3.8,1v0.5L33,27.7
			c0,0-1.1,0-1.2-0.4c-0.1-0.4-1.1-0.4-1.1-0.4l-1.1,0.3h-1.5l-3.4,0.1c0,0-0.5-0.4-0.3-1.1c0.2-0.7,0.6-1.4,0.6-1.4L25.8,24.7z"/>
		<path class="st8" d="M43.6,26.6"/>
		<g id="Layer_2">
			<linearGradient id="SVGID_9_" gradientUnits="userSpaceOnUse" x1="23.0409" y1="13.7699" x2="29.704" y2="13.7699">
				<stop  offset="0" style="stop-color:#C2C2C2"/>
				<stop  offset="0.3517" style="stop-color:#6E6E6E"/>
				<stop  offset="1" style="stop-color:#000000"/>
			</linearGradient>
			<ellipse class="st9" cx="26.4" cy="13.8" rx="3.3" ry="5.1"/>
			<linearGradient id="SVGID_10_" gradientUnits="userSpaceOnUse" x1="29.5769" y1="13.7699" x2="35.5125" y2="13.7699">
				<stop  offset="0" style="stop-color:#C2C2C2"/>
				<stop  offset="0.3517" style="stop-color:#6E6E6E"/>
				<stop  offset="1" style="stop-color:#000000"/>
			</linearGradient>
			<path class="st10" d="M35.3,14.8c-0.7,2.1-2.4,3.4-3.9,2.8c-1.5-0.6-2.2-2.8-1.5-4.9c0.7-2.1,2.4-3.4,3.9-2.8
				C35.2,10.5,35.9,12.7,35.3,14.8z"/>
			<linearGradient id="SVGID_11_" gradientUnits="userSpaceOnUse" x1="37.0962" y1="10.9644" x2="37.0962" y2="10.9644">
				<stop  offset="0" style="stop-color:#919191"/>
				<stop  offset="0.3517" style="stop-color:#0F0F0F"/>
				<stop  offset="1" style="stop-color:#000000"/>
			</linearGradient>
			<circle class="st11" cx="37.1" cy="11" r="0"/>
			<ellipse class="st12" cx="26.2" cy="13.8" rx="0.9" ry="1.2"/>
			<ellipse class="st12" cx="32.8" cy="14.1" rx="0.7" ry="1.1"/>
		</g>
	</g>
</g>
</svg>
