<?xml version="1.0" encoding="utf-8"?>
<!-- Generator: Adobe Illustrator 21.0.1, SVG Export Plug-In . SVG Version: 6.00 Build 0)  -->
<svg version="1.1" id="Layer_7" xmlns="http://www.w3.org/2000/svg" xmlns:xlink="http://www.w3.org/1999/xlink" x="0px" y="0px"
	 viewBox="0 0 45 45" style="enable-background:new 0 0 45 45;" xml:space="preserve">
<style type="text/css">
	.st0{fill:url(#SVGID_1_);stroke:#000000;stroke-width:0.4;stroke-miterlimit:10;}
	.st1{fill:url(#SVGID_2_);stroke:#000000;stroke-width:0.4;stroke-miterlimit:10;}
	.st2{fill:url(#SVGID_3_);stroke:#000000;stroke-width:0.4;stroke-miterlimit:10;}
	.st3{fill:url(#SVGID_4_);stroke:#000000;stroke-width:0.4;stroke-miterlimit:10;}
	.st4{fill:url(#SVGID_5_);stroke:#000000;stroke-width:0.4;stroke-miterlimit:10;}
	.st5{fill:url(#SVGID_6_);stroke:#000000;stroke-width:0.4;stroke-miterlimit:10;}
	.st6{fill:#7C335E;stroke:#000000;stroke-width:0.4;stroke-miterlimit:10;}
	.st7{fill:url(#SVGID_7_);stroke:#000000;stroke-width:0.4;stroke-miterlimit:10;}
	.st8{fill:url(#SVGID_8_);stroke:#000000;stroke-width:0.4;stroke-miterlimit:10;}
	.st9{fill:url(#SVGID_9_);}
	.st10{stroke:#000000;stroke-width:0.4;stroke-miterlimit:10;}
</style>
<g>
	<g>
		
			<linearGradient id="SVGID_1_" gradientUnits="userSpaceOnUse" x1="30.7394" y1="15.0874" x2="35.5165" y2="15.0874" gradientTransform="matrix(1 0 0 -1 0 45)">
			<stop  offset="0" style="stop-color:#919191"/>
			<stop  offset="0.3517" style="stop-color:#0F0F0F"/>
			<stop  offset="1" style="stop-color:#000000"/>
		</linearGradient>
		<path class="st0" d="M34.8,28.7c-0.6-0.1-0.8,0.9-1.7,0.9c-0.6,0-0.8-0.4-1.7-0.4c-0.6,0-0.6,0.1-0.6,0.1c-0.1,0.3,0.3,1,0.8,1.3
			c0.7,0.6,1.6,0.6,1.8,0.4c0.7,0,2.1-0.4,2.1-1.3C35.5,29.5,35.2,28.9,34.8,28.7z"/>
		
			<linearGradient id="SVGID_2_" gradientUnits="userSpaceOnUse" x1="7.4741" y1="25.9734" x2="38.9016" y2="25.9734" gradientTransform="matrix(1 0 0 -1 0 45)">
			<stop  offset="0" style="stop-color:#919191"/>
			<stop  offset="0.3517" style="stop-color:#0F0F0F"/>
			<stop  offset="1" style="stop-color:#000000"/>
		</linearGradient>
		<path class="st1" d="M33.5,13.7c-2.1,0.4-2.4,3.4-4.1,3.7c-1.3,0.3-3.1-1-5.7-6l0,0c-0.1-0.4-0.4-0.9-0.7-1.3
			c-0.1-0.1-0.1-0.1-0.3-0.3c-0.6-0.6-1-0.7-1.3-0.9c-1.8-0.6-4.9-1.1-7.8,0.4c-0.3,0.1-1.3,0.9-2.5,2.1c-3.8,4.6-3.8,11.2-3.8,13.7
			l0,0h2.3l1.4-3.7l1.4-1.4l0.1,0.1c-0.1,0.4-0.3,1.4-0.3,1.6c-0.3,1.7,0.7,2.3,0.4,3.7c-0.3,1.3-1.1,1.4-1.1,2.1
			c0.1,1.3,3.1,2.1,3.4,1.7c0-0.1-0.3-0.3-0.7-1c-0.1-0.3-1-1.7-0.7-2.3c0.3-0.4,1-0.1,1.3-0.6c0.3-0.4-0.6-1-0.7-2.1
			c0-0.9,0.3-1.3,0.4-1.7c0.7,0.4,1.4,0.9,2.4,1.3c-0.1,0.3,0.1,1-0.3,1.6c-0.4,0.7-1.1,0.7-1,1c0,0.1,0.3,0.3,0.7,0.4
			c0.7,0.3,1.3,0.4,1.7,0c0.4-0.3,0.4-1,0.6-1.3c0-0.3,0-0.7-0.1-1.3c0.8,0.3,2.8,0.7,4.4,0.3c0.3,0.3,0.7,0.7,1.1,1.7
			c0.1,0.4,0.3,0.9,0.4,1.7c0.4,1.7,0.3,2.4,0.7,2.6c0.3,0.1,0.8,0.1,1-0.1c0.3-0.4-0.4-0.9-0.4-1.9c0-0.1,0-0.9,0.4-1.3
			c0.6-0.7,1.4-0.4,1.6-0.9c0-0.3-0.4-0.6-0.8-0.7c-0.4-0.1-0.7,0-0.8,0.1c-0.4,0.3-0.6,0.6-0.8,0.6s-0.4-0.3-0.4-0.4
			c-0.3-0.6,0-1.3,0.3-1.9c1.8,0.3,3,0.1,3.7,0c0.1,0,0.1,0.1,0.3,0.1c0.7,0.4,1.4,1.3,1.6,2.1c0.1,0.9-0.4,1.4-0.1,1.7
			c0.1,0.1,0.6,0.1,0.7,0c0.3-0.1,0.1-0.4,0.4-0.9c0.3-0.6,1-0.7,1.3-0.7c1.1-0.3,2,0.7,2.3,0.4c0.1-0.3-0.1-1.1-0.8-1.4
			c-0.7-0.4-1.3,0.4-2,0c-0.8-0.4-0.7-1.7-1.1-2.4c0.1,0,0.1,0.1,0.3,0.1s0.4,0.1,1.3,0c1.3-0.1,2.3-0.6,2.3-0.6
			c1.4-0.6,3.8-1.4,4.1-3.1C39.3,16.4,36,13.2,33.5,13.7z"/>
	</g>
	<g id="Layer_5">
		
			<linearGradient id="SVGID_3_" gradientUnits="userSpaceOnUse" x1="7.5006" y1="9.8703" x2="21.6714" y2="9.8703" gradientTransform="matrix(1 0 0 -1 0 45)">
			<stop  offset="0" style="stop-color:#919191"/>
			<stop  offset="0.3517" style="stop-color:#0F0F0F"/>
			<stop  offset="1" style="stop-color:#000000"/>
		</linearGradient>
		<path class="st2" d="M17,34.4c-0.1,0.1,0.3,0.6,0.1,1.1C17,35.9,16.7,36,16.6,36c-0.4,0.1-1.1-0.4-1.3-0.9
			c-0.1-0.9,0.7-1.9,1.6-2.1c0.1,0,0.8-0.3,1.6,0.1c0.3,0.1,0.4,0.4,1,1.9c0.4,1.4,0.7,2.3,0.7,2.8c-0.1,1.1-1,1.9-1.1,2
			c-1.3,1-2.8,0.6-3.3,0.4c-1.6-0.4-2.4-1.6-3.3-2.7c-1.3-1.7-1.8-3.6-2.3-4.8c-0.6-2,0-3.1-0.7-3.8c-0.6-0.4-1.6-0.4-1.8,0
			c-0.1,0.1-0.1,0.4,0.1,1.6c0.3,1.3,0.7,2.1,0.7,2.1c0.7,1.7,1,2.7,1.3,3.3c0.6,1.1,1.1,2,1.4,2.3c1,1.4,1.6,2.3,2.5,2.8
			c1.3,0.7,2.5,0.7,3.4,0.7c1,0,1.7,0,2.5-0.6c1.3-0.9,1.8-2.3,1.8-2.6c0.6-1.7,0-3.3-0.4-4.4c-0.4-1.1-0.8-2.1-2-2.7
			s-2.3-0.1-2.5,0c-0.4,0.1-1.4,0.6-1.8,1.7c-0.1,0.1-0.6,1.6,0.1,2.7c0.6,0.9,1.6,0.9,1.7,0.9s1.4,0,1.6-0.9
			C18.1,35.1,17.1,34.3,17,34.4z"/>
	</g>
	<g id="Layer_6">
		
			<linearGradient id="SVGID_4_" gradientUnits="userSpaceOnUse" x1="0.1989" y1="17.8394" x2="12.3858" y2="17.8394" gradientTransform="matrix(1 0 0 -1 0 45)">
			<stop  offset="0" style="stop-color:#919191"/>
			<stop  offset="0.3517" style="stop-color:#737373"/>
			<stop  offset="1" style="stop-color:#000000"/>
		</linearGradient>
		<path class="st3" d="M0.3,26.5l2.1-0.9h1.4c0,0,2.4-0.3,3-0.4c0.7-0.1,3.3,0.3,3.3,0.3l2.3-0.3L11.1,27l1,1.7L0.7,29.2
			C0.7,29.2-0.1,27.3,0.3,26.5z"/>
		
			<linearGradient id="SVGID_5_" gradientUnits="userSpaceOnUse" x1="13.787" y1="17.4017" x2="24.5877" y2="17.4017" gradientTransform="matrix(1 0 0 -1 0 45)">
			<stop  offset="0" style="stop-color:#1F1F1F"/>
			<stop  offset="0.3517" style="stop-color:#0F0F0F"/>
			<stop  offset="1" style="stop-color:#000000"/>
		</linearGradient>
		<path class="st4" d="M14.2,25.8l2.8,0.7l1.7-0.3h5.2l0.7,3.1L15,29.5l-1.1-2C13.9,27.5,13.6,25.6,14.2,25.8z"/>
		
			<linearGradient id="SVGID_6_" gradientUnits="userSpaceOnUse" x1="25.6829" y1="17.2555" x2="44.6818" y2="17.2555" gradientTransform="matrix(1 0 0 -1 0 45)">
			<stop  offset="0" style="stop-color:#1A1A1A"/>
			<stop  offset="0.3517" style="stop-color:#0F0F0F"/>
			<stop  offset="1" style="stop-color:#000000"/>
		</linearGradient>
		<path class="st5" d="M27.6,25.6l2.5,0.1l-0.4,1.7l1.3-0.1l0.7-1.1c0,0,1.1-0.3,2.5,0c1.4,0.1,1.3-0.4,1.3-0.4h3.8l5.4,1.4v0.7
			l-6.9,2c0,0-1.6,0-1.7-0.6c-0.1-0.6-1.6-0.6-1.6-0.6L33,29.2h-2.1l-4.8,0.1c0,0-0.7-0.6-0.4-1.6c0.3-1,0.8-2,0.8-2L27.6,25.6z"/>
		<path class="st6" d="M52.8,28.3"/>
		<g id="Layer_2">
			
				<linearGradient id="SVGID_7_" gradientUnits="userSpaceOnUse" x1="23.7064" y1="34.9086" x2="33.128" y2="34.9086" gradientTransform="matrix(1 0 0 -1 0 45)">
				<stop  offset="0" style="stop-color:#C2C2C2"/>
				<stop  offset="0.3517" style="stop-color:#6E6E6E"/>
				<stop  offset="1" style="stop-color:#000000"/>
			</linearGradient>
			<ellipse class="st7" cx="28.5" cy="10.1" rx="4.7" ry="7.3"/>
			
				<linearGradient id="SVGID_8_" gradientUnits="userSpaceOnUse" x1="32.9482" y1="34.9798" x2="41.3411" y2="34.9798" gradientTransform="matrix(1 0 0 -1 0 45)">
				<stop  offset="0" style="stop-color:#C2C2C2"/>
				<stop  offset="0.3517" style="stop-color:#6E6E6E"/>
				<stop  offset="1" style="stop-color:#000000"/>
			</linearGradient>
			<path class="st8" d="M41,11.5c-1,3-3.4,4.8-5.5,4c-2.1-0.9-3.1-4-2.1-7s3.4-4.8,5.5-4C40.9,5.4,41.9,8.5,41,11.5z"/>
			
				<linearGradient id="SVGID_9_" gradientUnits="userSpaceOnUse" x1="43.5858" y1="38.8948" x2="43.5858" y2="38.8948" gradientTransform="matrix(1 0 0 -1 0 45)">
				<stop  offset="0" style="stop-color:#919191"/>
				<stop  offset="0.3517" style="stop-color:#0F0F0F"/>
				<stop  offset="1" style="stop-color:#000000"/>
			</linearGradient>
			<circle class="st9" cx="43.6" cy="6.1" r="0"/>
			<ellipse class="st10" cx="28.2" cy="10.1" rx="1.3" ry="1.7"/>
			<ellipse class="st10" cx="37.5" cy="10.5" rx="1" ry="1.6"/>
		</g>
	</g>
</g>
</svg>
