<?xml version="1.0" encoding="utf-8"?>
<!-- Generator: Adobe Illustrator 21.0.1, SVG Export Plug-In . SVG Version: 6.00 Build 0)  -->
<svg version="1.1" id="Layer_2" xmlns="http://www.w3.org/2000/svg" xmlns:xlink="http://www.w3.org/1999/xlink" x="0px" y="0px"
	 viewBox="0 0 45 45" style="enable-background:new 0 0 45 45;" xml:space="preserve">
<style type="text/css">
	.st0{fill:url(#SVGID_1_);}
	.st1{fill:url(#SVGID_2_);}
	.st2{fill:url(#SVGID_3_);}
	.st3{fill:url(#SVGID_4_);}
	.st4{fill:url(#SVGID_5_);}
</style>
<g>
	
		<linearGradient id="SVGID_1_" gradientUnits="userSpaceOnUse" x1="18.499" y1="22.8" x2="26.4505" y2="22.8" gradientTransform="matrix(1 0 0 -1 0 45)">
		<stop  offset="0" style="stop-color:#919191"/>
		<stop  offset="0.3517" style="stop-color:#0F0F0F"/>
		<stop  offset="1" style="stop-color:#000000"/>
	</linearGradient>
	<ellipse class="st0" cx="22.4" cy="22.2" rx="4" ry="4.1"/>
	
		<linearGradient id="SVGID_2_" gradientUnits="userSpaceOnUse" x1="28.9034" y1="22.8" x2="35.8637" y2="22.8" gradientTransform="matrix(1 0 0 -1 0 45)">
		<stop  offset="0" style="stop-color:#919191"/>
		<stop  offset="0.3517" style="stop-color:#0F0F0F"/>
		<stop  offset="1" style="stop-color:#000000"/>
	</linearGradient>
	<path class="st1" d="M28.9,15.5c0,0,2.7,2.3,2.7,6.7c-0.1,4.3-2.6,6.6-2.6,6.6L32,32c0,0,4.2-5.2,4-9.8c-0.2-4.5-1.5-7.3-4-9.8"/>
	
		<linearGradient id="SVGID_3_" gradientUnits="userSpaceOnUse" x1="9.0335" y1="22.8" x2="15.9937" y2="22.8" gradientTransform="matrix(1 0 0 -1 0 45)">
		<stop  offset="0" style="stop-color:#919191"/>
		<stop  offset="0.3517" style="stop-color:#0F0F0F"/>
		<stop  offset="1" style="stop-color:#000000"/>
	</linearGradient>
	<path class="st2" d="M16,15.5c0,0-2.7,2.3-2.7,6.7s2.6,6.6,2.6,6.6L12.9,32c0,0-4.2-5.2-4-9.8c0.2-4.5,1.5-7.3,4-9.8"/>
	
		<linearGradient id="SVGID_4_" gradientUnits="userSpaceOnUse" x1="35.3557" y1="22.8" x2="45" y2="22.8" gradientTransform="matrix(1 0 0 -1 0 45)">
		<stop  offset="0" style="stop-color:#919191"/>
		<stop  offset="0.3517" style="stop-color:#0F0F0F"/>
		<stop  offset="1" style="stop-color:#000000"/>
	</linearGradient>
	<path class="st3" d="M35.4,8.9c0,0,5.9,5.5,5.5,14.1c-0.4,8.6-5.5,12.6-5.5,12.6l3.1,3.1c0,0,6.6-6.7,6.6-15.6S40.8,7.5,38.4,5.8"
		/>
	
		<linearGradient id="SVGID_5_" gradientUnits="userSpaceOnUse" x1="-4.699651e-02" y1="22.8" x2="9.5972" y2="22.8" gradientTransform="matrix(1 0 0 -1 0 45)">
		<stop  offset="0" style="stop-color:#919191"/>
		<stop  offset="0.3517" style="stop-color:#0F0F0F"/>
		<stop  offset="1" style="stop-color:#000000"/>
	</linearGradient>
	<path class="st4" d="M9.6,8.9c0,0-5.9,5.5-5.5,14.1c0.4,8.6,5.5,12.6,5.5,12.6l-3.1,3.1C6.6,38.6,0,32,0,23S4.2,7.5,6.6,5.8"/>
</g>
</svg>
