<?xml version="1.0" encoding="utf-8"?>
<!-- Generator: Adobe Illustrator 21.0.1, SVG Export Plug-In . SVG Version: 6.00 Build 0)  -->
<svg version="1.1" xmlns="http://www.w3.org/2000/svg" xmlns:xlink="http://www.w3.org/1999/xlink" x="0px" y="0px"
	 viewBox="0 0 45 45" style="enable-background:new 0 0 45 45;" xml:space="preserve">
<style type="text/css">
	.st0{fill:url(#SVGID_1_);}
	.st1{fill:url(#SVGID_2_);}
</style>
<g id="Layer_3">
</g>
<g id="Layer_4">
	<g>
		<path d="M4.6,1.4c-0.6,0-1,0.4-1.1,1L0,41.8c0,0.5,0.4,1,0.9,1h39.4c0.5,0,1-0.4,1.1-1l3.4-39.4c0-0.5-0.4-1-0.9-1H4.6z M39,38.9
			c0,0.5-0.5,1-1.1,1H4.2c-0.6,0-1-0.4-0.9-1L6.2,5.2c0-0.5,0.5-1,1.1-1H41c0.5,0,1,0.4,0.9,1L39,38.9z"/>
	</g>
</g>
<g id="Layer_2">
	
		<linearGradient id="SVGID_1_" gradientUnits="userSpaceOnUse" x1="7.9416" y1="23.4293" x2="31.3797" y2="23.4293" gradientTransform="matrix(1 0 0 -1 0 45)">
		<stop  offset="0" style="stop-color:#919191;stop-opacity:0.6"/>
		<stop  offset="4.553290e-02" style="stop-color:#717171;stop-opacity:0.6479"/>
		<stop  offset="0.1054" style="stop-color:#4E4E4E;stop-opacity:0.7109"/>
		<stop  offset="0.1661" style="stop-color:#333333;stop-opacity:0.7747"/>
		<stop  offset="0.2271" style="stop-color:#1F1F1F;stop-opacity:0.8389"/>
		<stop  offset="0.2887" style="stop-color:#131313;stop-opacity:0.9037"/>
		<stop  offset="0.3517" style="stop-color:#0F0F0F;stop-opacity:0.97"/>
		<stop  offset="0.416" style="stop-color:#090909;stop-opacity:0.9732"/>
		<stop  offset="0.556" style="stop-color:#020202;stop-opacity:0.9803"/>
		<stop  offset="0.9453" style="stop-color:#000000"/>
	</linearGradient>
	<path class="st0" d="M17.7,6.2l12.9,13.3c0,0,1.8,1.6,0,3.3c-1.8,1.8-19.4,14-19.4,14s-1.8,0.8-2.8-0.7s0.2-3,0.2-3l16.8-12.3
		L14.3,9.4c0,0-0.6-1,0.5-2.4S17.7,6.2,17.7,6.2z"/>
	
		<linearGradient id="SVGID_2_" gradientUnits="userSpaceOnUse" x1="22.2712" y1="10.9558" x2="36.3329" y2="10.9558" gradientTransform="matrix(1 0 0 -1 0 45)">
		<stop  offset="0" style="stop-color:#919191;stop-opacity:0.6"/>
		<stop  offset="4.553290e-02" style="stop-color:#717171;stop-opacity:0.6479"/>
		<stop  offset="0.1054" style="stop-color:#4E4E4E;stop-opacity:0.7109"/>
		<stop  offset="0.1661" style="stop-color:#333333;stop-opacity:0.7747"/>
		<stop  offset="0.2271" style="stop-color:#1F1F1F;stop-opacity:0.8389"/>
		<stop  offset="0.2887" style="stop-color:#131313;stop-opacity:0.9037"/>
		<stop  offset="0.3517" style="stop-color:#0F0F0F;stop-opacity:0.97"/>
		<stop  offset="0.416" style="stop-color:#090909;stop-opacity:0.9732"/>
		<stop  offset="0.556" style="stop-color:#020202;stop-opacity:0.9803"/>
		<stop  offset="0.9453" style="stop-color:#000000"/>
	</linearGradient>
	<path class="st1" d="M23.8,32h11c0,0,1.5,0.9,1.5,2.1c0,1.3-1.1,1.9-1.1,1.9H23.9c0,0-1.7,0-1.7-1.8C22.2,32.5,23.8,32,23.8,32z"/>
</g>
</svg>
