<?xml version="1.0" encoding="utf-8"?>
<!-- Generator: Adobe Illustrator 21.0.1, SVG Export Plug-In . SVG Version: 6.00 Build 0)  -->
<svg version="1.1" id="Layer_1" xmlns="http://www.w3.org/2000/svg" xmlns:xlink="http://www.w3.org/1999/xlink" x="0px" y="0px"
	 viewBox="0 0 45 45" style="enable-background:new 0 0 45 45;" xml:space="preserve">
<style type="text/css">
	.st0{opacity:0.3;fill:url(#SVGID_1_);}
	.st1{opacity:0.3;fill:url(#SVGID_2_);}
</style>
<linearGradient id="SVGID_1_" gradientUnits="userSpaceOnUse" x1="22.5" y1="37.7519" x2="22.5" y2="2.5628">
	<stop  offset="0" style="stop-color:#FFFFFF;stop-opacity:0.6"/>
	<stop  offset="6.976287e-03" style="stop-color:#F6F6F6;stop-opacity:0.603"/>
	<stop  offset="4.506669e-02" style="stop-color:#C8C8C8;stop-opacity:0.6191"/>
	<stop  offset="8.799452e-02" style="stop-color:#9D9D9D;stop-opacity:0.6372"/>
	<stop  offset="0.1341" style="stop-color:#777777;stop-opacity:0.6568"/>
	<stop  offset="0.1844" style="stop-color:#575757;stop-opacity:0.678"/>
	<stop  offset="0.2399" style="stop-color:#3B3B3B;stop-opacity:0.7015"/>
	<stop  offset="0.3025" style="stop-color:#252525;stop-opacity:0.728"/>
	<stop  offset="0.3757" style="stop-color:#141414;stop-opacity:0.759"/>
	<stop  offset="0.4661" style="stop-color:#090909;stop-opacity:0.7972"/>
	<stop  offset="0.593" style="stop-color:#020202;stop-opacity:0.8509"/>
	<stop  offset="0.9453" style="stop-color:#000000"/>
</linearGradient>
<path class="st0" d="M0,5.4C0,2.4,2.4,0,5.4,0h34.2c3,0,5.4,2.4,5.4,5.4v34.2c0,3-2.4,5.4-5.4,5.4H5.4c-3,0-5.4-2.4-5.4-5.4V5.4z"/>
<linearGradient id="SVGID_2_" gradientUnits="userSpaceOnUse" x1="22.5" y1="37.7519" x2="22.5" y2="2.5628" gradientTransform="matrix(-1 0 0 -1 45 45)">
	<stop  offset="0" style="stop-color:#FFFFFF;stop-opacity:0.6"/>
	<stop  offset="6.976287e-03" style="stop-color:#F6F6F6;stop-opacity:0.603"/>
	<stop  offset="4.506669e-02" style="stop-color:#C8C8C8;stop-opacity:0.6191"/>
	<stop  offset="8.799452e-02" style="stop-color:#9D9D9D;stop-opacity:0.6372"/>
	<stop  offset="0.1341" style="stop-color:#777777;stop-opacity:0.6568"/>
	<stop  offset="0.1844" style="stop-color:#575757;stop-opacity:0.678"/>
	<stop  offset="0.2399" style="stop-color:#3B3B3B;stop-opacity:0.7015"/>
	<stop  offset="0.3025" style="stop-color:#252525;stop-opacity:0.728"/>
	<stop  offset="0.3757" style="stop-color:#141414;stop-opacity:0.759"/>
	<stop  offset="0.4661" style="stop-color:#090909;stop-opacity:0.7972"/>
	<stop  offset="0.593" style="stop-color:#020202;stop-opacity:0.8509"/>
	<stop  offset="0.9453" style="stop-color:#000000"/>
</linearGradient>
<path class="st1" d="M45,39.6c0,3-2.4,5.4-5.4,5.4H5.4c-3,0-5.4-2.4-5.4-5.4V5.4C0,2.4,2.4,0,5.4,0h34.2c3,0,5.4,2.4,5.4,5.4V39.6z"
	/>
</svg>
