<?xml version="1.0" encoding="utf-8"?>
<!-- Generator: Adobe Illustrator 21.0.1, SVG Export Plug-In . SVG Version: 6.00 Build 0)  -->
<svg version="1.1" id="Layer_1" xmlns="http://www.w3.org/2000/svg" xmlns:xlink="http://www.w3.org/1999/xlink" x="0px" y="0px"
	 viewBox="0 0 64 64" style="enable-background:new 0 0 64 64;" xml:space="preserve">
<style type="text/css">
	.st0{enable-background:new    ;}
	.st1{fill:url(#SVGID_1_);}
</style>
<g id="USERS_1_" class="st0">
	<g id="USERS">
		<g>
			<linearGradient id="SVGID_1_" gradientUnits="userSpaceOnUse" x1="-9.970665e-04" y1="32.4775" x2="63.9" y2="32.4775">
				<stop  offset="0" style="stop-color:#919191"/>
				<stop  offset="0.3517" style="stop-color:#0F0F0F"/>
				<stop  offset="1" style="stop-color:#000000"/>
			</linearGradient>
			<path class="st1" d="M40.8,42c-3.7-1.8-2.3-0.4-6.8-2.3c-4.5-1.9-5.6-2.5-5.6-2.5l0-4.3c0,0,1.7-1.3,2.2-5.3
				c1.1,0.3,1.4-1.2,1.5-2.2c0.1-1,0.6-3.9-0.7-3.7c0.3-2,0.5-3.8,0.4-4.7c-0.3-3.3-2.6-6.8-8.5-7.1c-5,0.3-8.2,3.7-8.5,7.1
				c-0.1,0.9,0.1,2.7,0.4,4.7c-1.3-0.3-0.7,2.7-0.7,3.7c0.1,1,0.4,2.5,1.5,2.2c0.5,4,2.2,5.3,2.2,5.3l0,4.3c0,0-1.1,0.7-5.6,2.5
				c-4.5,1.9-3.1,0.4-6.8,2.2C0,44.9,0,52.8,0,52.8h0c0,0,0,0,0,0C0,54,1,55,2.2,55h42.3c1.2,0,2.2-1,2.2-2.2c0,0,0,0,0,0h0
				C46.7,52.8,46.7,44.9,40.8,42z M63.9,53c0,0,0-7.2-5.3-9.9c-3.4-1.7-2.1-0.4-6.2-2.1c-4.1-1.7-5.1-2.3-5.1-2.3l0-3.9
				c0,0,1.5-1.2,2-4.9c1,0.3,1.3-1.1,1.3-2c0.1-0.9,0.6-3.6-0.6-3.3c0.2-1.8,0.4-3.4,0.3-4.3c-0.3-3-2.4-6.2-7.7-6.4
				c-4.5,0.2-7.4,3.4-7.7,6.4c-0.1,0.9,0.1,2.5,0.3,4.3c-1.2-0.2-0.7,2.5-0.6,3.3c0.1,0.9,0.4,2.3,1.3,2c0.5,3.7,2,4.9,2,4.9l0,3.9
				c1.4,0.3,1.6,0.1,4.4,1.5C49,43.6,49,52.6,49,52.6h0c0,0,0,0,0,0c0,1.2-0.8,2.2-1.9,2.4h14.8C63,55,63.9,54.1,63.9,53
				C63.9,53,63.9,53,63.9,53L63.9,53L63.9,53z"/>
		</g>
	</g>
</g>
</svg>
