<?xml version="1.0" encoding="utf-8"?>
<!-- Generator: Adobe Illustrator 21.0.1, SVG Export Plug-In . SVG Version: 6.00 Build 0)  -->
<svg version="1.1" id="Layer_4" xmlns="http://www.w3.org/2000/svg" xmlns:xlink="http://www.w3.org/1999/xlink" x="0px" y="0px"
	 viewBox="0 0 45 45" style="enable-background:new 0 0 45 45;" xml:space="preserve">
<style type="text/css">
	.st0{fill:url(#SVGID_1_);}
	.st1{fill:url(#SVGID_2_);}
</style>
<g>
	
		<linearGradient id="SVGID_1_" gradientUnits="userSpaceOnUse" x1="22.0212" y1="36.2621" x2="44.1647" y2="36.2621" gradientTransform="matrix(1 0 0 -1 0 45)">
		<stop  offset="0" style="stop-color:#919191"/>
		<stop  offset="0.3517" style="stop-color:#0F0F0F"/>
		<stop  offset="1" style="stop-color:#000000"/>
	</linearGradient>
	<path class="st0" d="M33.6,0c-8.7,0-11.7,7-11.7,7v10.5h4.5l0.3-9.2c0,0,0.4-3.8,6.3-3.8s6.4,3.8,6.4,3.8v9.2H44V7
		C44.2,7,42.3,0,33.6,0z"/>
	
		<linearGradient id="SVGID_2_" gradientUnits="userSpaceOnUse" x1="0.9856" y1="13.1068" x2="34.2754" y2="13.1068" gradientTransform="matrix(1 0 0 -1 0 45)">
		<stop  offset="0" style="stop-color:#919191"/>
		<stop  offset="0.3517" style="stop-color:#0F0F0F"/>
		<stop  offset="1" style="stop-color:#000000"/>
	</linearGradient>
	<path class="st1" d="M28.8,18.8H6.5L0.9,24v15.7L6.5,45h22.1l5.5-5.2V24L28.8,18.8z M17.7,38.6h-5.2l3.3-6l0,0
		c-1.5-0.7-2.3-2-2.3-3.6c0-2.2,1.9-4.1,4.2-4.1s4.2,1.9,4.2,4.2c0,1.6-1,2.9-2.3,3.6l0,0l3.3,6h-5.2V38.6z"/>
</g>
</svg>
