<?xml version="1.0" encoding="utf-8"?>
<!-- Generator: Adobe Illustrator 21.0.1, SVG Export Plug-In . SVG Version: 6.00 Build 0)  -->
<svg version="1.1" id="Layer_1" xmlns="http://www.w3.org/2000/svg" xmlns:xlink="http://www.w3.org/1999/xlink" x="0px" y="0px"
	 viewBox="0 0 45 45" style="enable-background:new 0 0 45 45;" xml:space="preserve">
<style type="text/css">
	.st0{fill:url(#SVGID_1_);}
	.st1{fill:url(#SVGID_2_);}
	.st2{fill:url(#SVGID_3_);}
	.st3{fill:url(#SVGID_4_);}
</style>
<g>
	<linearGradient id="SVGID_1_" gradientUnits="userSpaceOnUse" x1="5.2811" y1="17.9014" x2="32.0391" y2="17.9014">
		<stop  offset="0" style="stop-color:#B8B8B8"/>
		<stop  offset="1" style="stop-color:#3D3D3D"/>
	</linearGradient>
	<path class="st0" d="M31.5,22.1c0.3,0,0.6-0.4,0.6-0.8v-16c0-0.4-0.4-0.8-0.8-0.8H6.1c-0.4,0-0.8,0.4-0.8,0.8v25.2
		c0,0.4,0.4,0.8,0.8,0.8h13.3c0.4,0,0.8-0.2,0.8-0.4c0-0.2,0-0.8,0-0.8c0,0-0.1,0-0.1-0.1c0,0-0.4-0.1-0.8-0.1H7.9
		c-0.4,0-0.8-0.4-0.8-0.8V7c0-0.4,0.4-0.8,0.8-0.8h21.7c0.4,0,0.8,0.4,0.8,0.8v14.4C30.3,21.8,31.2,22.1,31.5,22.1z"/>
</g>
<g>
	<linearGradient id="SVGID_2_" gradientUnits="userSpaceOnUse" x1="6.9722" y1="18.667" x2="25.112" y2="18.667">
		<stop  offset="0" style="stop-color:#FFFFFF"/>
		<stop  offset="1" style="stop-color:#575757"/>
	</linearGradient>
	<path class="st1" d="M23.6,23.3c0.3-0.3,0.3-0.4,0-0.3c0,0,0,0-0.3,0.1c0.3-0.1,0.3-0.1,0.3-0.1c0.3-0.1,0.6-0.3,0.7-0.4
		s0.1-0.1-0.3,0.2c0,0-3.1,1.9-3.9,5c0.8-3.1,3.9-5,3.9-5c0.4-0.2,0.8-0.5,1-0.6c0.1-0.1,0.2-0.4-0.2-0.5c0,0-1.7-0.6-1.8-0.7
		c-0.2-0.3-1.1-1.1-1.2-1.1c-0.1,0-0.1-0.3-0.1-0.3c0-0.4,0.2-1.1,0.3-1.6l0.3-0.6c0.1-0.4,0.2-0.6,0.2-0.3c0,0,0,0,0.3-0.2
		c0.3-0.2,0.5-1.2,0.6-1.3c0.1-0.1,0.1-0.8,0.2-0.9c0-0.1,0-0.1,0-0.1c0.1-0.3,0.2-0.6,0.1-0.7c0,0,0,0-0.1-0.1
		c-0.1-0.1-0.1-0.1-0.1-0.1c-0.1,0-0.2,0-0.2,0c0,0,0-0.4,0-0.9c0,0,0-2.2-0.1-2.4c0-0.3-0.2-0.6-0.2-0.6c-0.2-0.4-0.7-1-0.9-1.3
		c0,0-0.2-0.2-1.3-0.7c-1.1-0.4-2-0.4-2-0.4c-0.4,0-0.5,0-0.2,0c0.3,0,0.2,0-0.2,0l-1-0.1c-0.4,0.1-0.7,0.2-0.7,0.1
		c0-0.1-0.1,0.1-0.4,0.4S15.4,8.3,15,8.5c0,0-0.2-0.2-0.4,0c-0.2,0.2-0.3,0.3-0.1,0.3c0,0,0,0,0.2,0c0.1,0,0.1,0,0.1,0
		c-0.1,0-0.1,0-0.1,0c0,0-0.1,0.3-0.3,0.6c-0.2,0.3-0.3,0.5-0.2,0.5c0.1,0,0.1,0.3,0.1,0.7l-0.1,2.3c0.2,0.4,0.2,1.1,0.1,1.5
		l-0.4,0.1c0.2,0.4,0.5,1.1,0.7,1.4c0,0,0.1,1,0.3,1c0.2,0,0.4,0.3,0.5,0.7c0,0,0.2,0.5,0.3,1c0.2,0.4,0.2,0.6,0.2,0.6
		c-0.1,0.4-0.4,1-0.8,1.3c0,0-0.3,0.3-0.7,0.6c-0.4,0.3-2.9,1.1-4.4,1.7s-1.5,0.6-1.5,0.6c-0.2,0.3-0.4,0.9-0.5,1.3l-1,4.7
		c0,0.4,0.4,0.8,0.9,0.8h11.6c0.4,0,0.8-0.1,0.8-0.2c0-0.1,0-0.5,0-0.5c0,0,0-0.4,0.2-0.8L23.6,23.3z"/>
</g>
<g>
	<linearGradient id="SVGID_3_" gradientUnits="userSpaceOnUse" x1="19.9999" y1="30.7093" x2="39.626" y2="30.7093">
		<stop  offset="0" style="stop-color:#03D400"/>
		<stop  offset="1" style="stop-color:#1E7F00"/>
	</linearGradient>
	<path class="st2" d="M29.8,20.9c-5.4,0-9.8,4.4-9.8,9.8s4.4,9.8,9.8,9.8s9.8-4.4,9.8-9.8S35.2,20.9,29.8,20.9z M29.8,38.7
		c-4.4,0-8-3.6-8-8s3.6-8,8-8s8,3.6,8,8S34.2,38.7,29.8,38.7z"/>
	<linearGradient id="SVGID_4_" gradientUnits="userSpaceOnUse" x1="24.5372" y1="30.7093" x2="35.4617" y2="30.7093">
		<stop  offset="0" style="stop-color:#03D400"/>
		<stop  offset="1" style="stop-color:#1E7F00"/>
	</linearGradient>
	<path class="st3" d="M35.2,29.5l-4.3-4.3c-0.2-0.2-0.5-0.3-0.8-0.3c-0.3,0-0.6,0.1-0.9,0.3l-4.4,4.4c-0.4,0.4-0.4,1.1,0,1.5
		c0.4,0.4,1.1,0.4,1.5,0l2.6-2.6v7.1c0,0.6,0.5,1.1,1.1,1.1c0.6,0,1.1-0.5,1.1-1.1v-7.2l2.6,2.6c0.4,0.4,1.1,0.4,1.5,0
		C35.6,30.6,35.6,29.9,35.2,29.5z"/>
</g>
</svg>
